solid lox_inlet
 facet normal -1 0 0
  outer loop
   vertex -0.0158989 0.00298357 -1.26678e-06
   vertex -0.0158989 0.00298357 3.26937e-06
   vertex -0.0158989 0.00298811 3.26937e-06
  endloop
 endfacet
 facet normal -1 0 0
  outer loop
   vertex -0.0158989 0.00298357 -1.26678e-06
   vertex -0.0158989 0.00298811 3.26937e-06
   vertex -0.0158989 0.00298811 -1.26678e-06
  endloop
 endfacet
 facet normal -1 0 0
  outer loop
   vertex -0.0158989 0.00297903 -1.26678e-06
   vertex -0.0158989 0.00297903 3.26937e-06
   vertex -0.0158989 0.00298357 3.26937e-06
  endloop
 endfacet
 facet normal -1 0 0
  outer loop
   vertex -0.0158989 0.00297903 -1.26678e-06
   vertex -0.0158989 0.00298357 3.26937e-06
   vertex -0.0158989 0.00298357 -1.26678e-06
  endloop
 endfacet
endsolid lox_inlet
