# vtk DataFile Version 2.0
sampleSurface
ASCII
DATASET POLYDATA
POINTS 108 float
-0.0158218 0.00298811 3.26937e-06 -0.0158218 0.00298811 -1.26678e-06 -0.0158218 0.00299264 -1.26678e-06 -0.0158218 0.00299264
3.26937e-06 -0.0158218 0.00299718 3.26937e-06 -0.0158218 0.00299718 -1.26678e-06 -0.0158218 0.00300171 3.26937e-06
-0.0158218 0.00300171 -1.26678e-06 -0.0158263 0.00298811 3.26937e-06 -0.0158263 0.00298811 -1.26678e-06 -0.0158309
0.00296996 -1.26678e-06 -0.0158309 0.00296996 3.26937e-06 -0.0158309 0.0029745 -1.26678e-06 -0.0158309 0.0029745
3.26937e-06 -0.0158309 0.00297903 3.26937e-06 -0.0158309 0.00297903 -1.26678e-06 -0.0158309 0.00298811 3.26937e-06
-0.0158309 0.00298811 -1.26678e-06 -0.0158354 0.00296996 3.26937e-06 -0.0158354 0.00296996 -1.26678e-06 -0.0158354
0.00297903 -1.26678e-06 -0.0158354 0.00297903 3.26937e-06 -0.0158354 0.00298811 3.26937e-06 -0.0158354 0.00298811
-1.26678e-06 -0.0158399 0.00296996 3.26937e-06 -0.0158399 0.00296996 -1.26678e-06 -0.0158399 0.00297903 -1.26678e-06
-0.0158399 0.00297903 3.26937e-06 -0.0158399 0.00298811 3.26937e-06 -0.0158399 0.00298811 -1.26678e-06 -0.0158445
0.00296996 3.26937e-06 -0.0158445 0.00296996 -1.26678e-06 -0.0158445 0.00297903 -1.26678e-06 -0.0158445 0.00297903
3.26937e-06 -0.0158445 0.00298811 3.26937e-06 -0.0158445 0.00298811 -1.26678e-06 -0.015849 0.00296996 3.26937e-06
-0.015849 0.00296996 -1.26678e-06 -0.015849 0.00297903 -1.26678e-06 -0.015849 0.00297903 3.26937e-06 -0.015849
0.00298811 3.26937e-06 -0.015849 0.00298811 -1.26678e-06 -0.0158535 0.00296996 3.26937e-06 -0.0158535 0.00296996
-1.26678e-06 -0.0158535 0.00297903 -1.26678e-06 -0.0158535 0.00297903 3.26937e-06 -0.0158535 0.00298811 3.26937e-06
-0.0158535 0.00298811 -1.26678e-06 -0.0158581 0.00296996 3.26937e-06 -0.0158581 0.00296996 -1.26678e-06 -0.0158581
0.00297903 -1.26678e-06 -0.0158581 0.00297903 3.26937e-06 -0.0158581 0.00298811 3.26937e-06 -0.0158581 0.00298811
-1.26678e-06 -0.0158626 0.00296996 3.26937e-06 -0.0158626 0.00296996 -1.26678e-06 -0.0158626 0.00297903 -1.26678e-06
-0.0158626 0.00297903 3.26937e-06 -0.0158626 0.00298811 3.26937e-06 -0.0158626 0.00298811 -1.26678e-06 -0.0158671
0.00296996 3.26937e-06 -0.0158671 0.00296996 -1.26678e-06 -0.0158671 0.00297903 -1.26678e-06 -0.0158671 0.00297903
3.26937e-06 -0.0158671 0.00298811 3.26937e-06 -0.0158671 0.00298811 -1.26678e-06 -0.0158717 0.00296996 3.26937e-06
-0.0158717 0.00296996 -1.26678e-06 -0.0158717 0.00297903 -1.26678e-06 -0.0158717 0.00297903 3.26937e-06 -0.0158717
0.00298811 3.26937e-06 -0.0158717 0.00298811 -1.26678e-06 -0.0158762 0.00296996 3.26937e-06 -0.0158762 0.00296996
-1.26678e-06 -0.0158762 0.00297903 -1.26678e-06 -0.0158762 0.00297903 3.26937e-06 -0.0158762 0.00298811 3.26937e-06
-0.0158762 0.00298811 -1.26678e-06 -0.0158808 0.00296996 3.26937e-06 -0.0158808 0.00296996 -1.26678e-06 -0.0158808
0.00297903 -1.26678e-06 -0.0158808 0.00297903 3.26937e-06 -0.0158808 0.00298811 3.26937e-06 -0.0158808 0.00298811
-1.26678e-06 -0.0158853 0.00296996 3.26937e-06 -0.0158853 0.00296996 -1.26678e-06 -0.0158853 0.00297903 -1.26678e-06
-0.0158853 0.00297903 3.26937e-06 -0.0158853 0.00298811 3.26937e-06 -0.0158853 0.00298811 -1.26678e-06 -0.0158898
0.00296996 3.26937e-06 -0.0158898 0.00296996 -1.26678e-06 -0.0158898 0.00297903 -1.26678e-06 -0.0158898 0.00297903
3.26937e-06 -0.0158898 0.00298811 3.26937e-06 -0.0158898 0.00298811 -1.26678e-06 -0.0158944 0.00296996 3.26937e-06
-0.0158944 0.00296996 -1.26678e-06 -0.0158944 0.00297903 -1.26678e-06 -0.0158944 0.00297903 3.26937e-06 -0.0158944
0.00298811 3.26937e-06 -0.0158944 0.00298811 -1.26678e-06 -0.0158989 0.00296996 3.26937e-06 -0.0158989 0.00296996
-1.26678e-06 -0.0158989 0.00297903 -1.26678e-06 -0.0158989 0.00297903 3.26937e-06 -0.0158989 0.00298811 3.26937e-06
-0.0158989 0.00298811 -1.26678e-06 
POLYGONS 104 416
3 96 90 91 3 96 91 97 3 102 96
97 3 102 97 103 3 98 92 93 3
98 93 99 3 100 94 95 3 100 95
101 3 104 98 99 3 104 99 105 3
106 100 101 3 106 101 107 3 84 78
79 3 84 79 85 3 72 66 67 3
72 67 73 3 78 72 73 3 78 73
79 3 86 80 81 3 86 81 87 3
88 82 83 3 88 83 89 3 74 68
69 3 74 69 75 3 76 70 71 3
76 71 77 3 80 74 75 3 80 75
81 3 82 76 77 3 82 77 83 3
90 84 85 3 90 85 91 3 92 86
87 3 92 87 93 3 94 88 89 3
94 89 95 3 60 54 55 3 60 55
61 3 48 42 43 3 48 43 49 3
54 48 49 3 54 49 55 3 62 56
57 3 62 57 63 3 64 58 59 3
64 59 65 3 50 44 45 3 50 45
51 3 52 46 47 3 52 47 53 3
56 50 51 3 56 51 57 3 58 52
53 3 58 53 59 3 36 30 31 3
36 31 37 3 24 18 19 3 24 19
25 3 30 24 25 3 30 25 31 3
38 32 33 3 38 33 39 3 40 34
35 3 40 35 41 3 26 20 21 3
26 21 27 3 28 22 23 3 28 23
29 3 32 26 27 3 32 27 33 3
34 28 29 3 34 29 35 3 42 36
37 3 42 37 43 3 44 38 39 3
44 39 45 3 46 40 41 3 46 41
47 3 66 60 61 3 66 61 67 3
68 62 63 3 68 63 69 3 70 64
65 3 70 65 71 3 12 13 14 3
12 14 15 3 16 8 9 3 16 9
17 3 8 0 1 3 8 1 9 3
10 11 13 3 10 13 12 3 2 3
4 3 2 4 5 3 5 4 6 3
5 6 7 3 1 0 3 3 1 3
2 3 18 11 10 3 18 10 19 3
20 15 14 3 20 14 21 3 22 16
17 3 22 17 23 
CELL_DATA 104
FIELD attributes 1
zone 1 104 float
0 0 0 0 0 0 1 1 0 0 1
1 0 0 0 0 0 0 0 0 1
1 0 0 1 1 0 0 1 1 0
0 0 0 1 1 0 0 0 0 0
0 0 0 1 1 0 0 1 1 0
0 1 1 0 0 0 0 0 0 0
0 1 1 0 0 1 1 0 0 1
1 0 0 0 0 1 1 0 0 0
0 1 1 0 0 1 1 1 1 0
0 1 1 1 1 1 1 0 0 0
0 1 1 
