# Wavefront OBJ file written 2025-12-21T19:37:58
o outlet_edgeMesh

# points : 108
# lines  : 108

# <points count="108">
v -0.0147513 0.0027613 3.26937e-06
v -0.0147513 0.0027613 -1.26678e-06
v -0.0147513 0.00300171 -1.26678e-06
v -0.0147513 0.00300171 3.26937e-06
v -0.0147513 0.00277037 3.26937e-06
v -0.0147513 0.00276584 3.26937e-06
v -0.0147513 0.00276584 -1.26678e-06
v -0.0147513 0.00277037 -1.26678e-06
v -0.0147513 0.00277945 3.26937e-06
v -0.0147513 0.00277491 3.26937e-06
v -0.0147513 0.00277491 -1.26678e-06
v -0.0147513 0.00277945 -1.26678e-06
v -0.0147513 0.00278852 3.26937e-06
v -0.0147513 0.00278398 3.26937e-06
v -0.0147513 0.00278398 -1.26678e-06
v -0.0147513 0.00278852 -1.26678e-06
v -0.0147513 0.00279759 3.26937e-06
v -0.0147513 0.00279305 3.26937e-06
v -0.0147513 0.00279305 -1.26678e-06
v -0.0147513 0.00279759 -1.26678e-06
v -0.0147513 0.00280666 3.26937e-06
v -0.0147513 0.00280213 3.26937e-06
v -0.0147513 0.00280213 -1.26678e-06
v -0.0147513 0.00280666 -1.26678e-06
v -0.0147513 0.00281573 3.26937e-06
v -0.0147513 0.0028112 3.26937e-06
v -0.0147513 0.0028112 -1.26678e-06
v -0.0147513 0.00281573 -1.26678e-06
v -0.0147513 0.00282481 3.26937e-06
v -0.0147513 0.00282027 3.26937e-06
v -0.0147513 0.00282027 -1.26678e-06
v -0.0147513 0.00282481 -1.26678e-06
v -0.0147513 0.00283388 3.26937e-06
v -0.0147513 0.00282934 3.26937e-06
v -0.0147513 0.00282934 -1.26678e-06
v -0.0147513 0.00283388 -1.26678e-06
v -0.0147513 0.00284295 3.26937e-06
v -0.0147513 0.00283841 3.26937e-06
v -0.0147513 0.00283841 -1.26678e-06
v -0.0147513 0.00284295 -1.26678e-06
v -0.0147513 0.00285202 3.26937e-06
v -0.0147513 0.00284749 3.26937e-06
v -0.0147513 0.00284749 -1.26678e-06
v -0.0147513 0.00285202 -1.26678e-06
v -0.0147513 0.0028611 3.26937e-06
v -0.0147513 0.00285656 3.26937e-06
v -0.0147513 0.00285656 -1.26678e-06
v -0.0147513 0.0028611 -1.26678e-06
v -0.0147513 0.00287017 3.26937e-06
v -0.0147513 0.00286563 3.26937e-06
v -0.0147513 0.00286563 -1.26678e-06
v -0.0147513 0.00287017 -1.26678e-06
v -0.0147513 0.00287924 3.26937e-06
v -0.0147513 0.0028747 3.26937e-06
v -0.0147513 0.0028747 -1.26678e-06
v -0.0147513 0.00287924 -1.26678e-06
v -0.0147513 0.00288831 3.26937e-06
v -0.0147513 0.00288378 3.26937e-06
v -0.0147513 0.00288378 -1.26678e-06
v -0.0147513 0.00288831 -1.26678e-06
v -0.0147513 0.00289738 3.26937e-06
v -0.0147513 0.00289285 3.26937e-06
v -0.0147513 0.00289285 -1.26678e-06
v -0.0147513 0.00289738 -1.26678e-06
v -0.0147513 0.00290646 3.26937e-06
v -0.0147513 0.00290192 3.26937e-06
v -0.0147513 0.00290192 -1.26678e-06
v -0.0147513 0.00290646 -1.26678e-06
v -0.0147513 0.00291553 3.26937e-06
v -0.0147513 0.00291099 3.26937e-06
v -0.0147513 0.00291099 -1.26678e-06
v -0.0147513 0.00291553 -1.26678e-06
v -0.0147513 0.0029246 3.26937e-06
v -0.0147513 0.00292006 3.26937e-06
v -0.0147513 0.00292006 -1.26678e-06
v -0.0147513 0.0029246 -1.26678e-06
v -0.0147513 0.00293367 3.26937e-06
v -0.0147513 0.00292914 3.26937e-06
v -0.0147513 0.00292914 -1.26678e-06
v -0.0147513 0.00293367 -1.26678e-06
v -0.0147513 0.00294275 3.26937e-06
v -0.0147513 0.00293821 3.26937e-06
v -0.0147513 0.00293821 -1.26678e-06
v -0.0147513 0.00294275 -1.26678e-06
v -0.0147513 0.00295182 3.26937e-06
v -0.0147513 0.00294728 3.26937e-06
v -0.0147513 0.00294728 -1.26678e-06
v -0.0147513 0.00295182 -1.26678e-06
v -0.0147513 0.00296089 3.26937e-06
v -0.0147513 0.00295635 3.26937e-06
v -0.0147513 0.00295635 -1.26678e-06
v -0.0147513 0.00296089 -1.26678e-06
v -0.0147513 0.00296996 3.26937e-06
v -0.0147513 0.00296543 3.26937e-06
v -0.0147513 0.00296543 -1.26678e-06
v -0.0147513 0.00296996 -1.26678e-06
v -0.0147513 0.00297903 3.26937e-06
v -0.0147513 0.0029745 3.26937e-06
v -0.0147513 0.0029745 -1.26678e-06
v -0.0147513 0.00297903 -1.26678e-06
v -0.0147513 0.00298811 3.26937e-06
v -0.0147513 0.00298357 3.26937e-06
v -0.0147513 0.00298357 -1.26678e-06
v -0.0147513 0.00298811 -1.26678e-06
v -0.0147513 0.00299718 3.26937e-06
v -0.0147513 0.00299264 3.26937e-06
v -0.0147513 0.00299264 -1.26678e-06
v -0.0147513 0.00299718 -1.26678e-06
# </points>

# <edges count="108">
l 5 6
l 7 8
l 6 1
l 1 2
l 2 7
l 9 10
l 11 12
l 13 14
l 15 16
l 14 9
l 12 15
l 17 18
l 19 20
l 21 22
l 23 24
l 22 17
l 20 23
l 18 13
l 16 19
l 10 5
l 8 11
l 25 26
l 27 28
l 29 30
l 31 32
l 30 25
l 28 31
l 33 34
l 35 36
l 37 38
l 39 40
l 38 33
l 36 39
l 34 29
l 32 35
l 41 42
l 43 44
l 45 46
l 47 48
l 46 41
l 44 47
l 49 50
l 51 52
l 53 54
l 55 56
l 54 49
l 52 55
l 50 45
l 48 51
l 42 37
l 40 43
l 26 21
l 24 27
l 57 58
l 59 60
l 61 62
l 63 64
l 62 57
l 60 63
l 65 66
l 67 68
l 69 70
l 71 72
l 70 65
l 68 71
l 66 61
l 64 67
l 73 74
l 75 76
l 77 78
l 79 80
l 78 73
l 76 79
l 81 82
l 83 84
l 85 86
l 87 88
l 86 81
l 84 87
l 82 77
l 80 83
l 74 69
l 72 75
l 89 90
l 91 92
l 93 94
l 95 96
l 94 89
l 92 95
l 97 98
l 99 100
l 101 102
l 103 104
l 102 97
l 100 103
l 98 93
l 96 99
l 105 106
l 107 108
l 3 4
l 4 105
l 108 3
l 106 101
l 104 107
l 90 85
l 88 91
l 58 53
l 56 59
# </edges>
