# Wavefront OBJ file written 2025-12-21T19:37:58
o pintle_wall_edgeMesh

# points : 108
# lines  : 111

# <points count="108">
v -0.0158989 0.00296996 3.26937e-06
v -0.0158989 0.00296996 -1.26678e-06
v -0.0158989 0.00297903 -1.26678e-06
v -0.0158989 0.00297903 3.26937e-06
v -0.0158989 0.00298811 3.26937e-06
v -0.0158989 0.00298811 -1.26678e-06
v -0.0158309 0.00297903 3.26937e-06
v -0.0158309 0.00297903 -1.26678e-06
v -0.0158218 0.00298811 3.26937e-06
v -0.0158218 0.00298811 -1.26678e-06
v -0.0158309 0.00296996 -1.26678e-06
v -0.0158309 0.00296996 3.26937e-06
v -0.0158218 0.00300171 3.26937e-06
v -0.0158218 0.00300171 -1.26678e-06
v -0.0158944 0.00296996 3.26937e-06
v -0.0158898 0.00296996 3.26937e-06
v -0.0158898 0.00296996 -1.26678e-06
v -0.0158944 0.00296996 -1.26678e-06
v -0.0158944 0.00297903 -1.26678e-06
v -0.0158898 0.00297903 -1.26678e-06
v -0.0158898 0.00297903 3.26937e-06
v -0.0158944 0.00297903 3.26937e-06
v -0.0158944 0.00298811 3.26937e-06
v -0.0158898 0.00298811 3.26937e-06
v -0.0158898 0.00298811 -1.26678e-06
v -0.0158944 0.00298811 -1.26678e-06
v -0.0158853 0.00296996 3.26937e-06
v -0.0158808 0.00296996 3.26937e-06
v -0.0158808 0.00296996 -1.26678e-06
v -0.0158853 0.00296996 -1.26678e-06
v -0.0158762 0.00296996 3.26937e-06
v -0.0158717 0.00296996 3.26937e-06
v -0.0158717 0.00296996 -1.26678e-06
v -0.0158762 0.00296996 -1.26678e-06
v -0.0158853 0.00297903 -1.26678e-06
v -0.0158808 0.00297903 -1.26678e-06
v -0.0158808 0.00297903 3.26937e-06
v -0.0158853 0.00297903 3.26937e-06
v -0.0158853 0.00298811 3.26937e-06
v -0.0158808 0.00298811 3.26937e-06
v -0.0158808 0.00298811 -1.26678e-06
v -0.0158853 0.00298811 -1.26678e-06
v -0.0158762 0.00297903 -1.26678e-06
v -0.0158717 0.00297903 -1.26678e-06
v -0.0158717 0.00297903 3.26937e-06
v -0.0158762 0.00297903 3.26937e-06
v -0.0158762 0.00298811 3.26937e-06
v -0.0158717 0.00298811 3.26937e-06
v -0.0158717 0.00298811 -1.26678e-06
v -0.0158762 0.00298811 -1.26678e-06
v -0.0158671 0.00296996 3.26937e-06
v -0.0158626 0.00296996 3.26937e-06
v -0.0158626 0.00296996 -1.26678e-06
v -0.0158671 0.00296996 -1.26678e-06
v -0.0158581 0.00296996 3.26937e-06
v -0.0158535 0.00296996 3.26937e-06
v -0.0158535 0.00296996 -1.26678e-06
v -0.0158581 0.00296996 -1.26678e-06
v -0.0158671 0.00297903 -1.26678e-06
v -0.0158626 0.00297903 -1.26678e-06
v -0.0158626 0.00297903 3.26937e-06
v -0.0158671 0.00297903 3.26937e-06
v -0.0158671 0.00298811 3.26937e-06
v -0.0158626 0.00298811 3.26937e-06
v -0.0158626 0.00298811 -1.26678e-06
v -0.0158671 0.00298811 -1.26678e-06
v -0.0158581 0.00297903 -1.26678e-06
v -0.0158535 0.00297903 -1.26678e-06
v -0.0158535 0.00297903 3.26937e-06
v -0.0158581 0.00297903 3.26937e-06
v -0.0158581 0.00298811 3.26937e-06
v -0.0158535 0.00298811 3.26937e-06
v -0.0158535 0.00298811 -1.26678e-06
v -0.0158581 0.00298811 -1.26678e-06
v -0.015849 0.00296996 3.26937e-06
v -0.0158445 0.00296996 3.26937e-06
v -0.0158445 0.00296996 -1.26678e-06
v -0.015849 0.00296996 -1.26678e-06
v -0.0158399 0.00296996 3.26937e-06
v -0.0158354 0.00296996 3.26937e-06
v -0.0158354 0.00296996 -1.26678e-06
v -0.0158399 0.00296996 -1.26678e-06
v -0.015849 0.00297903 -1.26678e-06
v -0.0158445 0.00297903 -1.26678e-06
v -0.0158445 0.00297903 3.26937e-06
v -0.015849 0.00297903 3.26937e-06
v -0.015849 0.00298811 3.26937e-06
v -0.0158445 0.00298811 3.26937e-06
v -0.0158445 0.00298811 -1.26678e-06
v -0.015849 0.00298811 -1.26678e-06
v -0.0158399 0.00297903 -1.26678e-06
v -0.0158354 0.00297903 -1.26678e-06
v -0.0158354 0.00297903 3.26937e-06
v -0.0158399 0.00297903 3.26937e-06
v -0.0158399 0.00298811 3.26937e-06
v -0.0158354 0.00298811 3.26937e-06
v -0.0158354 0.00298811 -1.26678e-06
v -0.0158399 0.00298811 -1.26678e-06
v -0.0158309 0.0029745 3.26937e-06
v -0.0158309 0.0029745 -1.26678e-06
v -0.0158309 0.00298811 3.26937e-06
v -0.0158263 0.00298811 3.26937e-06
v -0.0158263 0.00298811 -1.26678e-06
v -0.0158309 0.00298811 -1.26678e-06
v -0.0158218 0.00299264 3.26937e-06
v -0.0158218 0.00299718 3.26937e-06
v -0.0158218 0.00299718 -1.26678e-06
v -0.0158218 0.00299264 -1.26678e-06
# </points>

# <edges count="111">
l 7 8
l 9 10
l 11 12
l 15 16
l 17 18
l 1 15
l 18 2
l 2 1
l 19 20
l 21 22
l 23 24
l 25 26
l 3 19
l 22 4
l 4 3
l 5 23
l 26 6
l 6 5
l 27 28
l 29 30
l 31 32
l 33 34
l 28 31
l 34 29
l 35 36
l 37 38
l 39 40
l 41 42
l 43 44
l 45 46
l 47 48
l 49 50
l 36 43
l 46 37
l 40 47
l 50 41
l 16 27
l 30 17
l 20 35
l 38 21
l 24 39
l 42 25
l 51 52
l 53 54
l 55 56
l 57 58
l 52 55
l 58 53
l 59 60
l 61 62
l 63 64
l 65 66
l 67 68
l 69 70
l 71 72
l 73 74
l 60 67
l 70 61
l 64 71
l 74 65
l 75 76
l 77 78
l 79 80
l 81 82
l 76 79
l 82 77
l 83 84
l 85 86
l 87 88
l 89 90
l 91 92
l 93 94
l 95 96
l 97 98
l 84 91
l 94 85
l 88 95
l 98 89
l 56 75
l 78 57
l 68 83
l 86 69
l 72 87
l 90 73
l 32 51
l 54 33
l 44 59
l 62 45
l 48 63
l 66 49
l 99 7
l 8 100
l 101 102
l 103 104
l 102 9
l 10 103
l 12 99
l 100 11
l 105 106
l 107 108
l 106 13
l 13 14
l 14 107
l 9 105
l 108 10
l 80 12
l 11 81
l 92 8
l 7 93
l 96 101
l 104 97
# </edges>
