# Wavefront OBJ file written 2025-12-21T19:37:58
o symm_edgeMesh

# points : 1332
# lines  : 1334

# <points count="1332">
v -0.0158581 0.00282027 -1.26678e-06
v -0.0158626 0.00282027 -1.26678e-06
v -0.0158626 0.00282481 -1.26678e-06
v -0.0158581 0.00281573 -1.26678e-06
v -0.0158671 0.00283388 -1.26678e-06
v -0.0158671 0.00282481 -1.26678e-06
v -0.0158717 0.00283388 -1.26678e-06
v -0.0158581 0.00282027 3.26937e-06
v -0.0158626 0.00282481 3.26937e-06
v -0.0158626 0.00282027 3.26937e-06
v -0.0158581 0.00281573 3.26937e-06
v -0.0158671 0.00283388 3.26937e-06
v -0.0158671 0.00282481 3.26937e-06
v -0.0158717 0.00283388 3.26937e-06
v -0.0158989 0.00296996 -1.26678e-06
v -0.0158989 0.00296089 -1.26678e-06
v -0.0158989 0.00298811 -1.26678e-06
v -0.0158989 0.00297903 -1.26678e-06
v -0.0158717 0.00296089 -1.26678e-06
v -0.0158309 0.00296996 -1.26678e-06
v -0.0158309 0.00297903 -1.26678e-06
v -0.0158218 0.00298811 -1.26678e-06
v -0.0158218 0.00300171 -1.26678e-06
v -0.0158989 0.00296996 3.26937e-06
v -0.0158989 0.00296089 3.26937e-06
v -0.0158989 0.00298811 3.26937e-06
v -0.0158989 0.00297903 3.26937e-06
v -0.0158717 0.00296089 3.26937e-06
v -0.0158309 0.00296996 3.26937e-06
v -0.0158309 0.00297903 3.26937e-06
v -0.0158218 0.00298811 3.26937e-06
v -0.0158218 0.00300171 3.26937e-06
v -0.0150733 0.00282027 -1.26678e-06
v -0.0150733 0.00281573 -1.26678e-06
v -0.0150597 0.00282934 -1.26678e-06
v -0.0150552 0.00283388 -1.26678e-06
v -0.0150552 0.00282934 -1.26678e-06
v -0.0150506 0.00283841 -1.26678e-06
v -0.0150416 0.00284295 -1.26678e-06
v -0.0150416 0.00283841 -1.26678e-06
v -0.0150506 0.00283388 -1.26678e-06
v -0.0150688 0.00282481 -1.26678e-06
v -0.0150597 0.00282481 -1.26678e-06
v -0.0150688 0.00282027 -1.26678e-06
v -0.0150325 0.00284749 -1.26678e-06
v -0.0150234 0.00285202 -1.26678e-06
v -0.0150234 0.00284749 -1.26678e-06
v -0.0150144 0.00285656 -1.26678e-06
v -0.0150053 0.0028611 -1.26678e-06
v -0.0150053 0.00285656 -1.26678e-06
v -0.0150144 0.00285202 -1.26678e-06
v -0.0149871 0.00286563 -1.26678e-06
v -0.014969 0.00287017 -1.26678e-06
v -0.014969 0.00286563 -1.26678e-06
v -0.0149871 0.0028611 -1.26678e-06
v -0.0149236 0.00286563 -1.26678e-06
v -0.0149236 0.00287017 -1.26678e-06
v -0.01491 0.00286563 -1.26678e-06
v -0.0149055 0.00285656 -1.26678e-06
v -0.0149055 0.0028611 -1.26678e-06
v -0.0148964 0.00285656 -1.26678e-06
v -0.0148964 0.00285202 -1.26678e-06
v -0.0148919 0.00285202 -1.26678e-06
v -0.01491 0.0028611 -1.26678e-06
v -0.0148783 0.00283841 -1.26678e-06
v -0.0148783 0.00284295 -1.26678e-06
v -0.0148692 0.00283841 -1.26678e-06
v -0.0148556 0.00282934 -1.26678e-06
v -0.0148647 0.00282934 -1.26678e-06
v -0.0148647 0.00283388 -1.26678e-06
v -0.0148692 0.00283388 -1.26678e-06
v -0.0148828 0.00284749 -1.26678e-06
v -0.0148511 0.00282027 -1.26678e-06
v -0.0148511 0.00282481 -1.26678e-06
v -0.014842 0.00282027 -1.26678e-06
v -0.014842 0.00281573 -1.26678e-06
v -0.0148374 0.00281573 -1.26678e-06
v -0.0148284 0.0028112 -1.26678e-06
v -0.0148374 0.0028112 -1.26678e-06
v -0.0148556 0.00282481 -1.26678e-06
v -0.0148828 0.00284295 -1.26678e-06
v -0.0148148 0.00280213 -1.26678e-06
v -0.0148057 0.00279305 -1.26678e-06
v -0.0148057 0.00279759 -1.26678e-06
v -0.0148012 0.00279305 -1.26678e-06
v -0.0148148 0.00279759 -1.26678e-06
v -0.0147876 0.00278398 -1.26678e-06
v -0.0147921 0.00278398 -1.26678e-06
v -0.0147921 0.00278852 -1.26678e-06
v -0.0147876 0.00277945 -1.26678e-06
v -0.0148012 0.00278852 -1.26678e-06
v -0.0147558 0.00276584 -1.26678e-06
v -0.0147558 0.0027613 -1.26678e-06
v -0.0147513 0.0027613 -1.26678e-06
v -0.0147649 0.00276584 -1.26678e-06
v -0.0147649 0.00277037 -1.26678e-06
v -0.0147785 0.00277491 -1.26678e-06
v -0.0147785 0.00277945 -1.26678e-06
v -0.0147739 0.00277491 -1.26678e-06
v -0.0147739 0.00277037 -1.26678e-06
v -0.0148193 0.00280213 -1.26678e-06
v -0.0148193 0.00280666 -1.26678e-06
v -0.0148284 0.00280666 -1.26678e-06
v -0.0148919 0.00284749 -1.26678e-06
v -0.0150325 0.00284295 -1.26678e-06
v -0.0150733 0.00282027 3.26937e-06
v -0.0150733 0.00281573 3.26937e-06
v -0.0150552 0.00282934 3.26937e-06
v -0.0150552 0.00283388 3.26937e-06
v -0.0150597 0.00282934 3.26937e-06
v -0.0150506 0.00283841 3.26937e-06
v -0.0150416 0.00283841 3.26937e-06
v -0.0150416 0.00284295 3.26937e-06
v -0.0150506 0.00283388 3.26937e-06
v -0.0150688 0.00282481 3.26937e-06
v -0.0150597 0.00282481 3.26937e-06
v -0.0150688 0.00282027 3.26937e-06
v -0.0150325 0.00284749 3.26937e-06
v -0.0150234 0.00284749 3.26937e-06
v -0.0150234 0.00285202 3.26937e-06
v -0.0150144 0.00285656 3.26937e-06
v -0.0150053 0.00285656 3.26937e-06
v -0.0150053 0.0028611 3.26937e-06
v -0.0150144 0.00285202 3.26937e-06
v -0.0149871 0.00286563 3.26937e-06
v -0.014969 0.00286563 3.26937e-06
v -0.014969 0.00287017 3.26937e-06
v -0.0149871 0.0028611 3.26937e-06
v -0.0149236 0.00287017 3.26937e-06
v -0.0149236 0.00286563 3.26937e-06
v -0.01491 0.00286563 3.26937e-06
v -0.0149055 0.0028611 3.26937e-06
v -0.0149055 0.00285656 3.26937e-06
v -0.0148964 0.00285656 3.26937e-06
v -0.0148919 0.00285202 3.26937e-06
v -0.0148964 0.00285202 3.26937e-06
v -0.01491 0.0028611 3.26937e-06
v -0.0148783 0.00284295 3.26937e-06
v -0.0148783 0.00283841 3.26937e-06
v -0.0148692 0.00283841 3.26937e-06
v -0.0148556 0.00282934 3.26937e-06
v -0.0148647 0.00283388 3.26937e-06
v -0.0148647 0.00282934 3.26937e-06
v -0.0148692 0.00283388 3.26937e-06
v -0.0148828 0.00284749 3.26937e-06
v -0.0148511 0.00282481 3.26937e-06
v -0.0148511 0.00282027 3.26937e-06
v -0.014842 0.00282027 3.26937e-06
v -0.0148374 0.00281573 3.26937e-06
v -0.014842 0.00281573 3.26937e-06
v -0.0148284 0.0028112 3.26937e-06
v -0.0148374 0.0028112 3.26937e-06
v -0.0148556 0.00282481 3.26937e-06
v -0.0148828 0.00284295 3.26937e-06
v -0.0148148 0.00280213 3.26937e-06
v -0.0148012 0.00279305 3.26937e-06
v -0.0148057 0.00279759 3.26937e-06
v -0.0148057 0.00279305 3.26937e-06
v -0.0148148 0.00279759 3.26937e-06
v -0.0147876 0.00278398 3.26937e-06
v -0.0147921 0.00278852 3.26937e-06
v -0.0147921 0.00278398 3.26937e-06
v -0.0147876 0.00277945 3.26937e-06
v -0.0148012 0.00278852 3.26937e-06
v -0.0147558 0.00276584 3.26937e-06
v -0.0147513 0.0027613 3.26937e-06
v -0.0147558 0.0027613 3.26937e-06
v -0.0147649 0.00277037 3.26937e-06
v -0.0147649 0.00276584 3.26937e-06
v -0.0147739 0.00277491 3.26937e-06
v -0.0147785 0.00277945 3.26937e-06
v -0.0147785 0.00277491 3.26937e-06
v -0.0147739 0.00277037 3.26937e-06
v -0.0148193 0.00280666 3.26937e-06
v -0.0148193 0.00280213 3.26937e-06
v -0.0148284 0.00280666 3.26937e-06
v -0.0148919 0.00284749 3.26937e-06
v -0.0150325 0.00284295 3.26937e-06
v -0.0147513 0.00300171 -1.26678e-06
v -0.0147513 0.00300171 3.26937e-06
v -0.0158535 0.00281573 -1.26678e-06
v -0.0158671 0.00282934 -1.26678e-06
v -0.0158445 0.00281573 -1.26678e-06
v -0.015849 0.00281573 -1.26678e-06
v -0.0158354 0.00281573 -1.26678e-06
v -0.0158399 0.00281573 -1.26678e-06
v -0.0158717 0.00283841 -1.26678e-06
v -0.0158717 0.00284295 -1.26678e-06
v -0.0158717 0.00284749 -1.26678e-06
v -0.0158717 0.00285202 -1.26678e-06
v -0.0158717 0.00285656 -1.26678e-06
v -0.0158717 0.0028611 -1.26678e-06
v -0.0158717 0.00286563 -1.26678e-06
v -0.0158717 0.00287017 -1.26678e-06
v -0.0158717 0.0028747 -1.26678e-06
v -0.0158717 0.00287924 -1.26678e-06
v -0.0158263 0.00281573 -1.26678e-06
v -0.0158309 0.00281573 -1.26678e-06
v -0.0158172 0.00281573 -1.26678e-06
v -0.0158218 0.00281573 -1.26678e-06
v -0.0158082 0.00281573 -1.26678e-06
v -0.0158127 0.00281573 -1.26678e-06
v -0.0157991 0.00281573 -1.26678e-06
v -0.0158036 0.00281573 -1.26678e-06
v -0.01579 0.00281573 -1.26678e-06
v -0.0157946 0.00281573 -1.26678e-06
v -0.015781 0.00281573 -1.26678e-06
v -0.0157855 0.00281573 -1.26678e-06
v -0.0157719 0.00281573 -1.26678e-06
v -0.0157764 0.00281573 -1.26678e-06
v -0.0157628 0.00281573 -1.26678e-06
v -0.0157673 0.00281573 -1.26678e-06
v -0.0157537 0.00281573 -1.26678e-06
v -0.0157583 0.00281573 -1.26678e-06
v -0.0157447 0.00281573 -1.26678e-06
v -0.0157492 0.00281573 -1.26678e-06
v -0.0157356 0.00281573 -1.26678e-06
v -0.0157401 0.00281573 -1.26678e-06
v -0.0157265 0.00281573 -1.26678e-06
v -0.0157311 0.00281573 -1.26678e-06
v -0.0157175 0.00281573 -1.26678e-06
v -0.015722 0.00281573 -1.26678e-06
v -0.0157084 0.00281573 -1.26678e-06
v -0.0157129 0.00281573 -1.26678e-06
v -0.0156993 0.00281573 -1.26678e-06
v -0.0157038 0.00281573 -1.26678e-06
v -0.0156902 0.00281573 -1.26678e-06
v -0.0156948 0.00281573 -1.26678e-06
v -0.0156812 0.00281573 -1.26678e-06
v -0.0156857 0.00281573 -1.26678e-06
v -0.0156721 0.00281573 -1.26678e-06
v -0.0156766 0.00281573 -1.26678e-06
v -0.015663 0.00281573 -1.26678e-06
v -0.0156676 0.00281573 -1.26678e-06
v -0.0156539 0.00281573 -1.26678e-06
v -0.0156585 0.00281573 -1.26678e-06
v -0.0156449 0.00281573 -1.26678e-06
v -0.0156494 0.00281573 -1.26678e-06
v -0.0156358 0.00281573 -1.26678e-06
v -0.0156403 0.00281573 -1.26678e-06
v -0.0156267 0.00281573 -1.26678e-06
v -0.0156313 0.00281573 -1.26678e-06
v -0.0156177 0.00281573 -1.26678e-06
v -0.0156222 0.00281573 -1.26678e-06
v -0.0156086 0.00281573 -1.26678e-06
v -0.0156131 0.00281573 -1.26678e-06
v -0.0155995 0.00281573 -1.26678e-06
v -0.015604 0.00281573 -1.26678e-06
v -0.0155904 0.00281573 -1.26678e-06
v -0.015595 0.00281573 -1.26678e-06
v -0.0155814 0.00281573 -1.26678e-06
v -0.0155859 0.00281573 -1.26678e-06
v -0.0155723 0.00281573 -1.26678e-06
v -0.0155768 0.00281573 -1.26678e-06
v -0.0155632 0.00281573 -1.26678e-06
v -0.0155678 0.00281573 -1.26678e-06
v -0.0155542 0.00281573 -1.26678e-06
v -0.0155587 0.00281573 -1.26678e-06
v -0.0155451 0.00281573 -1.26678e-06
v -0.0155496 0.00281573 -1.26678e-06
v -0.015536 0.00281573 -1.26678e-06
v -0.0155405 0.00281573 -1.26678e-06
v -0.0155269 0.00281573 -1.26678e-06
v -0.0155315 0.00281573 -1.26678e-06
v -0.0155179 0.00281573 -1.26678e-06
v -0.0155224 0.00281573 -1.26678e-06
v -0.0155088 0.00281573 -1.26678e-06
v -0.0155133 0.00281573 -1.26678e-06
v -0.0154997 0.00281573 -1.26678e-06
v -0.0155043 0.00281573 -1.26678e-06
v -0.0154906 0.00281573 -1.26678e-06
v -0.0154952 0.00281573 -1.26678e-06
v -0.0154816 0.00281573 -1.26678e-06
v -0.0154861 0.00281573 -1.26678e-06
v -0.0154725 0.00281573 -1.26678e-06
v -0.015477 0.00281573 -1.26678e-06
v -0.0154634 0.00281573 -1.26678e-06
v -0.015468 0.00281573 -1.26678e-06
v -0.0154544 0.00281573 -1.26678e-06
v -0.0154589 0.00281573 -1.26678e-06
v -0.0154453 0.00281573 -1.26678e-06
v -0.0154498 0.00281573 -1.26678e-06
v -0.0154362 0.00281573 -1.26678e-06
v -0.0154407 0.00281573 -1.26678e-06
v -0.0154271 0.00281573 -1.26678e-06
v -0.0154317 0.00281573 -1.26678e-06
v -0.0154181 0.00281573 -1.26678e-06
v -0.0154226 0.00281573 -1.26678e-06
v -0.015409 0.00281573 -1.26678e-06
v -0.0154135 0.00281573 -1.26678e-06
v -0.0153999 0.00281573 -1.26678e-06
v -0.0154045 0.00281573 -1.26678e-06
v -0.0153909 0.00281573 -1.26678e-06
v -0.0153954 0.00281573 -1.26678e-06
v -0.0153818 0.00281573 -1.26678e-06
v -0.0153863 0.00281573 -1.26678e-06
v -0.0153727 0.00281573 -1.26678e-06
v -0.0153772 0.00281573 -1.26678e-06
v -0.0153636 0.00281573 -1.26678e-06
v -0.0153682 0.00281573 -1.26678e-06
v -0.0153546 0.00281573 -1.26678e-06
v -0.0153591 0.00281573 -1.26678e-06
v -0.0153455 0.00281573 -1.26678e-06
v -0.01535 0.00281573 -1.26678e-06
v -0.0153364 0.00281573 -1.26678e-06
v -0.015341 0.00281573 -1.26678e-06
v -0.0153273 0.00281573 -1.26678e-06
v -0.0153319 0.00281573 -1.26678e-06
v -0.0158535 0.00281573 3.26937e-06
v -0.0158671 0.00282934 3.26937e-06
v -0.015849 0.00281573 3.26937e-06
v -0.0158445 0.00281573 3.26937e-06
v -0.0158399 0.00281573 3.26937e-06
v -0.0158354 0.00281573 3.26937e-06
v -0.0158717 0.00284295 3.26937e-06
v -0.0158717 0.00283841 3.26937e-06
v -0.0158717 0.00285202 3.26937e-06
v -0.0158717 0.00284749 3.26937e-06
v -0.0158717 0.0028611 3.26937e-06
v -0.0158717 0.00285656 3.26937e-06
v -0.0158717 0.00287017 3.26937e-06
v -0.0158717 0.00286563 3.26937e-06
v -0.0158717 0.00287924 3.26937e-06
v -0.0158717 0.0028747 3.26937e-06
v -0.0158309 0.00281573 3.26937e-06
v -0.0158263 0.00281573 3.26937e-06
v -0.0158218 0.00281573 3.26937e-06
v -0.0158172 0.00281573 3.26937e-06
v -0.0158127 0.00281573 3.26937e-06
v -0.0158082 0.00281573 3.26937e-06
v -0.0158036 0.00281573 3.26937e-06
v -0.0157991 0.00281573 3.26937e-06
v -0.0157946 0.00281573 3.26937e-06
v -0.01579 0.00281573 3.26937e-06
v -0.0157855 0.00281573 3.26937e-06
v -0.015781 0.00281573 3.26937e-06
v -0.0157764 0.00281573 3.26937e-06
v -0.0157719 0.00281573 3.26937e-06
v -0.0157673 0.00281573 3.26937e-06
v -0.0157628 0.00281573 3.26937e-06
v -0.0157583 0.00281573 3.26937e-06
v -0.0157537 0.00281573 3.26937e-06
v -0.0157492 0.00281573 3.26937e-06
v -0.0157447 0.00281573 3.26937e-06
v -0.0157401 0.00281573 3.26937e-06
v -0.0157356 0.00281573 3.26937e-06
v -0.0157311 0.00281573 3.26937e-06
v -0.0157265 0.00281573 3.26937e-06
v -0.015722 0.00281573 3.26937e-06
v -0.0157175 0.00281573 3.26937e-06
v -0.0157129 0.00281573 3.26937e-06
v -0.0157084 0.00281573 3.26937e-06
v -0.0157038 0.00281573 3.26937e-06
v -0.0156993 0.00281573 3.26937e-06
v -0.0156948 0.00281573 3.26937e-06
v -0.0156902 0.00281573 3.26937e-06
v -0.0156857 0.00281573 3.26937e-06
v -0.0156812 0.00281573 3.26937e-06
v -0.0156766 0.00281573 3.26937e-06
v -0.0156721 0.00281573 3.26937e-06
v -0.0156676 0.00281573 3.26937e-06
v -0.015663 0.00281573 3.26937e-06
v -0.0156585 0.00281573 3.26937e-06
v -0.0156539 0.00281573 3.26937e-06
v -0.0156494 0.00281573 3.26937e-06
v -0.0156449 0.00281573 3.26937e-06
v -0.0156403 0.00281573 3.26937e-06
v -0.0156358 0.00281573 3.26937e-06
v -0.0156313 0.00281573 3.26937e-06
v -0.0156267 0.00281573 3.26937e-06
v -0.0156222 0.00281573 3.26937e-06
v -0.0156177 0.00281573 3.26937e-06
v -0.0156131 0.00281573 3.26937e-06
v -0.0156086 0.00281573 3.26937e-06
v -0.015604 0.00281573 3.26937e-06
v -0.0155995 0.00281573 3.26937e-06
v -0.015595 0.00281573 3.26937e-06
v -0.0155904 0.00281573 3.26937e-06
v -0.0155859 0.00281573 3.26937e-06
v -0.0155814 0.00281573 3.26937e-06
v -0.0155768 0.00281573 3.26937e-06
v -0.0155723 0.00281573 3.26937e-06
v -0.0155678 0.00281573 3.26937e-06
v -0.0155632 0.00281573 3.26937e-06
v -0.0155587 0.00281573 3.26937e-06
v -0.0155542 0.00281573 3.26937e-06
v -0.0155496 0.00281573 3.26937e-06
v -0.0155451 0.00281573 3.26937e-06
v -0.0155405 0.00281573 3.26937e-06
v -0.015536 0.00281573 3.26937e-06
v -0.0155315 0.00281573 3.26937e-06
v -0.0155269 0.00281573 3.26937e-06
v -0.0155224 0.00281573 3.26937e-06
v -0.0155179 0.00281573 3.26937e-06
v -0.0155133 0.00281573 3.26937e-06
v -0.0155088 0.00281573 3.26937e-06
v -0.0155043 0.00281573 3.26937e-06
v -0.0154997 0.00281573 3.26937e-06
v -0.0154952 0.00281573 3.26937e-06
v -0.0154906 0.00281573 3.26937e-06
v -0.0154861 0.00281573 3.26937e-06
v -0.0154816 0.00281573 3.26937e-06
v -0.015477 0.00281573 3.26937e-06
v -0.0154725 0.00281573 3.26937e-06
v -0.015468 0.00281573 3.26937e-06
v -0.0154634 0.00281573 3.26937e-06
v -0.0154589 0.00281573 3.26937e-06
v -0.0154544 0.00281573 3.26937e-06
v -0.0154498 0.00281573 3.26937e-06
v -0.0154453 0.00281573 3.26937e-06
v -0.0154407 0.00281573 3.26937e-06
v -0.0154362 0.00281573 3.26937e-06
v -0.0154317 0.00281573 3.26937e-06
v -0.0154271 0.00281573 3.26937e-06
v -0.0154226 0.00281573 3.26937e-06
v -0.0154181 0.00281573 3.26937e-06
v -0.0154135 0.00281573 3.26937e-06
v -0.015409 0.00281573 3.26937e-06
v -0.0154045 0.00281573 3.26937e-06
v -0.0153999 0.00281573 3.26937e-06
v -0.0153954 0.00281573 3.26937e-06
v -0.0153909 0.00281573 3.26937e-06
v -0.0153863 0.00281573 3.26937e-06
v -0.0153818 0.00281573 3.26937e-06
v -0.0153772 0.00281573 3.26937e-06
v -0.0153727 0.00281573 3.26937e-06
v -0.0153682 0.00281573 3.26937e-06
v -0.0153636 0.00281573 3.26937e-06
v -0.0153591 0.00281573 3.26937e-06
v -0.0153546 0.00281573 3.26937e-06
v -0.01535 0.00281573 3.26937e-06
v -0.0153455 0.00281573 3.26937e-06
v -0.015341 0.00281573 3.26937e-06
v -0.0153364 0.00281573 3.26937e-06
v -0.0153319 0.00281573 3.26937e-06
v -0.0153273 0.00281573 3.26937e-06
v -0.0158717 0.00288378 -1.26678e-06
v -0.0158717 0.00288831 -1.26678e-06
v -0.0158717 0.00289285 -1.26678e-06
v -0.0158717 0.00289738 -1.26678e-06
v -0.0158717 0.00290192 -1.26678e-06
v -0.0158717 0.00290646 -1.26678e-06
v -0.0158717 0.00291099 -1.26678e-06
v -0.0158717 0.00291553 -1.26678e-06
v -0.0158717 0.00292006 -1.26678e-06
v -0.0158717 0.0029246 -1.26678e-06
v -0.0158717 0.00292914 -1.26678e-06
v -0.0158717 0.00293367 -1.26678e-06
v -0.0158717 0.00293821 -1.26678e-06
v -0.0158717 0.00294275 -1.26678e-06
v -0.0158717 0.00294728 -1.26678e-06
v -0.0158717 0.00295182 -1.26678e-06
v -0.0158944 0.00296996 -1.26678e-06
v -0.0158898 0.00296996 -1.26678e-06
v -0.0158989 0.00296543 -1.26678e-06
v -0.0158898 0.00296089 -1.26678e-06
v -0.0158944 0.00296089 -1.26678e-06
v -0.0158944 0.00298811 -1.26678e-06
v -0.0158898 0.00298811 -1.26678e-06
v -0.0158989 0.00298357 -1.26678e-06
v -0.0158898 0.00297903 -1.26678e-06
v -0.0158944 0.00297903 -1.26678e-06
v -0.0158853 0.00296996 -1.26678e-06
v -0.0158808 0.00296996 -1.26678e-06
v -0.0158762 0.00296996 -1.26678e-06
v -0.0158717 0.00296996 -1.26678e-06
v -0.0158808 0.00296089 -1.26678e-06
v -0.0158853 0.00296089 -1.26678e-06
v -0.0158762 0.00296089 -1.26678e-06
v -0.0158853 0.00298811 -1.26678e-06
v -0.0158808 0.00298811 -1.26678e-06
v -0.0158762 0.00298811 -1.26678e-06
v -0.0158717 0.00298811 -1.26678e-06
v -0.0158808 0.00297903 -1.26678e-06
v -0.0158853 0.00297903 -1.26678e-06
v -0.0158717 0.00297903 -1.26678e-06
v -0.0158762 0.00297903 -1.26678e-06
v -0.0158671 0.00296996 -1.26678e-06
v -0.0158626 0.00296996 -1.26678e-06
v -0.0158581 0.00296996 -1.26678e-06
v -0.0158535 0.00296996 -1.26678e-06
v -0.0158671 0.00298811 -1.26678e-06
v -0.0158626 0.00298811 -1.26678e-06
v -0.0158581 0.00298811 -1.26678e-06
v -0.0158535 0.00298811 -1.26678e-06
v -0.0158626 0.00297903 -1.26678e-06
v -0.0158671 0.00297903 -1.26678e-06
v -0.0158535 0.00297903 -1.26678e-06
v -0.0158581 0.00297903 -1.26678e-06
v -0.015849 0.00296996 -1.26678e-06
v -0.0158445 0.00296996 -1.26678e-06
v -0.0158399 0.00296996 -1.26678e-06
v -0.0158354 0.00296996 -1.26678e-06
v -0.015849 0.00298811 -1.26678e-06
v -0.0158445 0.00298811 -1.26678e-06
v -0.0158399 0.00298811 -1.26678e-06
v -0.0158354 0.00298811 -1.26678e-06
v -0.0158445 0.00297903 -1.26678e-06
v -0.015849 0.00297903 -1.26678e-06
v -0.0158354 0.00297903 -1.26678e-06
v -0.0158399 0.00297903 -1.26678e-06
v -0.0158717 0.00295635 -1.26678e-06
v -0.0158309 0.0029745 -1.26678e-06
v -0.0158309 0.00298811 -1.26678e-06
v -0.0158263 0.00298811 -1.26678e-06
v -0.0158218 0.00299264 -1.26678e-06
v -0.0158218 0.00299718 -1.26678e-06
v -0.0158717 0.00288831 3.26937e-06
v -0.0158717 0.00288378 3.26937e-06
v -0.0158717 0.00289738 3.26937e-06
v -0.0158717 0.00289285 3.26937e-06
v -0.0158717 0.00290646 3.26937e-06
v -0.0158717 0.00290192 3.26937e-06
v -0.0158717 0.00291553 3.26937e-06
v -0.0158717 0.00291099 3.26937e-06
v -0.0158717 0.0029246 3.26937e-06
v -0.0158717 0.00292006 3.26937e-06
v -0.0158717 0.00293367 3.26937e-06
v -0.0158717 0.00292914 3.26937e-06
v -0.0158717 0.00294275 3.26937e-06
v -0.0158717 0.00293821 3.26937e-06
v -0.0158717 0.00295182 3.26937e-06
v -0.0158717 0.00294728 3.26937e-06
v -0.0158898 0.00296996 3.26937e-06
v -0.0158944 0.00296996 3.26937e-06
v -0.0158989 0.00296543 3.26937e-06
v -0.0158944 0.00296089 3.26937e-06
v -0.0158898 0.00296089 3.26937e-06
v -0.0158898 0.00298811 3.26937e-06
v -0.0158944 0.00298811 3.26937e-06
v -0.0158989 0.00298357 3.26937e-06
v -0.0158944 0.00297903 3.26937e-06
v -0.0158898 0.00297903 3.26937e-06
v -0.0158808 0.00296996 3.26937e-06
v -0.0158853 0.00296996 3.26937e-06
v -0.0158717 0.00296996 3.26937e-06
v -0.0158762 0.00296996 3.26937e-06
v -0.0158853 0.00296089 3.26937e-06
v -0.0158808 0.00296089 3.26937e-06
v -0.0158762 0.00296089 3.26937e-06
v -0.0158808 0.00298811 3.26937e-06
v -0.0158853 0.00298811 3.26937e-06
v -0.0158717 0.00298811 3.26937e-06
v -0.0158762 0.00298811 3.26937e-06
v -0.0158853 0.00297903 3.26937e-06
v -0.0158808 0.00297903 3.26937e-06
v -0.0158762 0.00297903 3.26937e-06
v -0.0158717 0.00297903 3.26937e-06
v -0.0158626 0.00296996 3.26937e-06
v -0.0158671 0.00296996 3.26937e-06
v -0.0158535 0.00296996 3.26937e-06
v -0.0158581 0.00296996 3.26937e-06
v -0.0158626 0.00298811 3.26937e-06
v -0.0158671 0.00298811 3.26937e-06
v -0.0158535 0.00298811 3.26937e-06
v -0.0158581 0.00298811 3.26937e-06
v -0.0158671 0.00297903 3.26937e-06
v -0.0158626 0.00297903 3.26937e-06
v -0.0158581 0.00297903 3.26937e-06
v -0.0158535 0.00297903 3.26937e-06
v -0.0158445 0.00296996 3.26937e-06
v -0.015849 0.00296996 3.26937e-06
v -0.0158354 0.00296996 3.26937e-06
v -0.0158399 0.00296996 3.26937e-06
v -0.0158445 0.00298811 3.26937e-06
v -0.015849 0.00298811 3.26937e-06
v -0.0158354 0.00298811 3.26937e-06
v -0.0158399 0.00298811 3.26937e-06
v -0.015849 0.00297903 3.26937e-06
v -0.0158445 0.00297903 3.26937e-06
v -0.0158399 0.00297903 3.26937e-06
v -0.0158354 0.00297903 3.26937e-06
v -0.0158717 0.00295635 3.26937e-06
v -0.0158309 0.0029745 3.26937e-06
v -0.0158263 0.00298811 3.26937e-06
v -0.0158309 0.00298811 3.26937e-06
v -0.0158218 0.00299718 3.26937e-06
v -0.0158218 0.00299264 3.26937e-06
v -0.0153183 0.00281573 -1.26678e-06
v -0.0153228 0.00281573 -1.26678e-06
v -0.0153092 0.00281573 -1.26678e-06
v -0.0153137 0.00281573 -1.26678e-06
v -0.0153001 0.00281573 -1.26678e-06
v -0.0153047 0.00281573 -1.26678e-06
v -0.0152911 0.00281573 -1.26678e-06
v -0.0152956 0.00281573 -1.26678e-06
v -0.015282 0.00281573 -1.26678e-06
v -0.0152865 0.00281573 -1.26678e-06
v -0.0152729 0.00281573 -1.26678e-06
v -0.0152774 0.00281573 -1.26678e-06
v -0.0152638 0.00281573 -1.26678e-06
v -0.0152684 0.00281573 -1.26678e-06
v -0.0152548 0.00281573 -1.26678e-06
v -0.0152593 0.00281573 -1.26678e-06
v -0.0152457 0.00281573 -1.26678e-06
v -0.0152502 0.00281573 -1.26678e-06
v -0.0152366 0.00281573 -1.26678e-06
v -0.0152412 0.00281573 -1.26678e-06
v -0.0152276 0.00281573 -1.26678e-06
v -0.0152321 0.00281573 -1.26678e-06
v -0.0152185 0.00281573 -1.26678e-06
v -0.015223 0.00281573 -1.26678e-06
v -0.0152094 0.00281573 -1.26678e-06
v -0.0152139 0.00281573 -1.26678e-06
v -0.0152003 0.00281573 -1.26678e-06
v -0.0152049 0.00281573 -1.26678e-06
v -0.0151913 0.00281573 -1.26678e-06
v -0.0151958 0.00281573 -1.26678e-06
v -0.0151822 0.00281573 -1.26678e-06
v -0.0151867 0.00281573 -1.26678e-06
v -0.0151731 0.00281573 -1.26678e-06
v -0.0151777 0.00281573 -1.26678e-06
v -0.015164 0.00281573 -1.26678e-06
v -0.0151686 0.00281573 -1.26678e-06
v -0.015155 0.00281573 -1.26678e-06
v -0.0151595 0.00281573 -1.26678e-06
v -0.0151459 0.00281573 -1.26678e-06
v -0.0151504 0.00281573 -1.26678e-06
v -0.0151368 0.00281573 -1.26678e-06
v -0.0151414 0.00281573 -1.26678e-06
v -0.0151278 0.00281573 -1.26678e-06
v -0.0151323 0.00281573 -1.26678e-06
v -0.0151187 0.00281573 -1.26678e-06
v -0.0151232 0.00281573 -1.26678e-06
v -0.0151096 0.00281573 -1.26678e-06
v -0.0151142 0.00281573 -1.26678e-06
v -0.0151005 0.00281573 -1.26678e-06
v -0.0151051 0.00281573 -1.26678e-06
v -0.0150915 0.00281573 -1.26678e-06
v -0.015096 0.00281573 -1.26678e-06
v -0.0150824 0.00281573 -1.26678e-06
v -0.0150869 0.00281573 -1.26678e-06
v -0.0150779 0.00281573 -1.26678e-06
v -0.0150461 0.00283841 -1.26678e-06
v -0.0150643 0.00282481 -1.26678e-06
v -0.015037 0.00284295 -1.26678e-06
v -0.015028 0.00284749 -1.26678e-06
v -0.0150189 0.00285202 -1.26678e-06
v -0.0150098 0.00285656 -1.26678e-06
v -0.0150007 0.0028611 -1.26678e-06
v -0.0149826 0.00286563 -1.26678e-06
v -0.0149735 0.00286563 -1.26678e-06
v -0.0149781 0.00286563 -1.26678e-06
v -0.0149645 0.00287017 -1.26678e-06
v -0.0149917 0.0028611 -1.26678e-06
v -0.0149962 0.0028611 -1.26678e-06
v -0.0149554 0.00287017 -1.26678e-06
v -0.0149599 0.00287017 -1.26678e-06
v -0.0149463 0.00287017 -1.26678e-06
v -0.0149509 0.00287017 -1.26678e-06
v -0.0149372 0.00287017 -1.26678e-06
v -0.0149418 0.00287017 -1.26678e-06
v -0.0149282 0.00287017 -1.26678e-06
v -0.0149327 0.00287017 -1.26678e-06
v -0.0149191 0.00286563 -1.26678e-06
v -0.0149146 0.00286563 -1.26678e-06
v -0.014901 0.00285656 -1.26678e-06
v -0.0148737 0.00283841 -1.26678e-06
v -0.0148601 0.00282934 -1.26678e-06
v -0.0148873 0.00284749 -1.26678e-06
v -0.0148465 0.00282027 -1.26678e-06
v -0.0148329 0.0028112 -1.26678e-06
v -0.0148102 0.00279759 -1.26678e-06
v -0.014783 0.00277945 -1.26678e-06
v -0.0147966 0.00278852 -1.26678e-06
v -0.0147603 0.00276584 -1.26678e-06
v -0.0147513 0.00277037 -1.26678e-06
v -0.0147513 0.00276584 -1.26678e-06
v -0.0147513 0.00277945 -1.26678e-06
v -0.0147513 0.00277491 -1.26678e-06
v -0.0147513 0.00278852 -1.26678e-06
v -0.0147513 0.00278398 -1.26678e-06
v -0.0147513 0.00279759 -1.26678e-06
v -0.0147513 0.00279305 -1.26678e-06
v -0.0147513 0.00280666 -1.26678e-06
v -0.0147513 0.00280213 -1.26678e-06
v -0.0147694 0.00277037 -1.26678e-06
v -0.0147513 0.00281573 -1.26678e-06
v -0.0147513 0.0028112 -1.26678e-06
v -0.0147513 0.00282481 -1.26678e-06
v -0.0147513 0.00282027 -1.26678e-06
v -0.0147513 0.00283388 -1.26678e-06
v -0.0147513 0.00282934 -1.26678e-06
v -0.0147513 0.00284295 -1.26678e-06
v -0.0147513 0.00283841 -1.26678e-06
v -0.0147513 0.00285202 -1.26678e-06
v -0.0147513 0.00284749 -1.26678e-06
v -0.0147513 0.0028611 -1.26678e-06
v -0.0147513 0.00285656 -1.26678e-06
v -0.0147513 0.00287017 -1.26678e-06
v -0.0147513 0.00286563 -1.26678e-06
v -0.0147513 0.00287924 -1.26678e-06
v -0.0147513 0.0028747 -1.26678e-06
v -0.0148238 0.00280666 -1.26678e-06
v -0.0153228 0.00281573 3.26937e-06
v -0.0153183 0.00281573 3.26937e-06
v -0.0153137 0.00281573 3.26937e-06
v -0.0153092 0.00281573 3.26937e-06
v -0.0153047 0.00281573 3.26937e-06
v -0.0153001 0.00281573 3.26937e-06
v -0.0152956 0.00281573 3.26937e-06
v -0.0152911 0.00281573 3.26937e-06
v -0.0152865 0.00281573 3.26937e-06
v -0.015282 0.00281573 3.26937e-06
v -0.0152774 0.00281573 3.26937e-06
v -0.0152729 0.00281573 3.26937e-06
v -0.0152684 0.00281573 3.26937e-06
v -0.0152638 0.00281573 3.26937e-06
v -0.0152593 0.00281573 3.26937e-06
v -0.0152548 0.00281573 3.26937e-06
v -0.0152502 0.00281573 3.26937e-06
v -0.0152457 0.00281573 3.26937e-06
v -0.0152412 0.00281573 3.26937e-06
v -0.0152366 0.00281573 3.26937e-06
v -0.0152321 0.00281573 3.26937e-06
v -0.0152276 0.00281573 3.26937e-06
v -0.015223 0.00281573 3.26937e-06
v -0.0152185 0.00281573 3.26937e-06
v -0.0152139 0.00281573 3.26937e-06
v -0.0152094 0.00281573 3.26937e-06
v -0.0152049 0.00281573 3.26937e-06
v -0.0152003 0.00281573 3.26937e-06
v -0.0151958 0.00281573 3.26937e-06
v -0.0151913 0.00281573 3.26937e-06
v -0.0151867 0.00281573 3.26937e-06
v -0.0151822 0.00281573 3.26937e-06
v -0.0151777 0.00281573 3.26937e-06
v -0.0151731 0.00281573 3.26937e-06
v -0.0151686 0.00281573 3.26937e-06
v -0.015164 0.00281573 3.26937e-06
v -0.0151595 0.00281573 3.26937e-06
v -0.015155 0.00281573 3.26937e-06
v -0.0151504 0.00281573 3.26937e-06
v -0.0151459 0.00281573 3.26937e-06
v -0.0151414 0.00281573 3.26937e-06
v -0.0151368 0.00281573 3.26937e-06
v -0.0151323 0.00281573 3.26937e-06
v -0.0151278 0.00281573 3.26937e-06
v -0.0151232 0.00281573 3.26937e-06
v -0.0151187 0.00281573 3.26937e-06
v -0.0151142 0.00281573 3.26937e-06
v -0.0151096 0.00281573 3.26937e-06
v -0.0151051 0.00281573 3.26937e-06
v -0.0151005 0.00281573 3.26937e-06
v -0.015096 0.00281573 3.26937e-06
v -0.0150915 0.00281573 3.26937e-06
v -0.0150869 0.00281573 3.26937e-06
v -0.0150824 0.00281573 3.26937e-06
v -0.0150779 0.00281573 3.26937e-06
v -0.0150461 0.00283841 3.26937e-06
v -0.0150643 0.00282481 3.26937e-06
v -0.015037 0.00284295 3.26937e-06
v -0.015028 0.00284749 3.26937e-06
v -0.0150189 0.00285202 3.26937e-06
v -0.0150098 0.00285656 3.26937e-06
v -0.0150007 0.0028611 3.26937e-06
v -0.0149826 0.00286563 3.26937e-06
v -0.0149781 0.00286563 3.26937e-06
v -0.0149735 0.00286563 3.26937e-06
v -0.0149645 0.00287017 3.26937e-06
v -0.0149962 0.0028611 3.26937e-06
v -0.0149917 0.0028611 3.26937e-06
v -0.0149599 0.00287017 3.26937e-06
v -0.0149554 0.00287017 3.26937e-06
v -0.0149509 0.00287017 3.26937e-06
v -0.0149463 0.00287017 3.26937e-06
v -0.0149418 0.00287017 3.26937e-06
v -0.0149372 0.00287017 3.26937e-06
v -0.0149327 0.00287017 3.26937e-06
v -0.0149282 0.00287017 3.26937e-06
v -0.0149191 0.00286563 3.26937e-06
v -0.0149146 0.00286563 3.26937e-06
v -0.014901 0.00285656 3.26937e-06
v -0.0148737 0.00283841 3.26937e-06
v -0.0148601 0.00282934 3.26937e-06
v -0.0148873 0.00284749 3.26937e-06
v -0.0148465 0.00282027 3.26937e-06
v -0.0148329 0.0028112 3.26937e-06
v -0.0148102 0.00279759 3.26937e-06
v -0.014783 0.00277945 3.26937e-06
v -0.0147966 0.00278852 3.26937e-06
v -0.0147603 0.00276584 3.26937e-06
v -0.0147513 0.00276584 3.26937e-06
v -0.0147513 0.00277037 3.26937e-06
v -0.0147513 0.00277491 3.26937e-06
v -0.0147513 0.00277945 3.26937e-06
v -0.0147513 0.00278398 3.26937e-06
v -0.0147513 0.00278852 3.26937e-06
v -0.0147513 0.00279305 3.26937e-06
v -0.0147513 0.00279759 3.26937e-06
v -0.0147513 0.00280213 3.26937e-06
v -0.0147513 0.00280666 3.26937e-06
v -0.0147694 0.00277037 3.26937e-06
v -0.0147513 0.0028112 3.26937e-06
v -0.0147513 0.00281573 3.26937e-06
v -0.0147513 0.00282027 3.26937e-06
v -0.0147513 0.00282481 3.26937e-06
v -0.0147513 0.00282934 3.26937e-06
v -0.0147513 0.00283388 3.26937e-06
v -0.0147513 0.00283841 3.26937e-06
v -0.0147513 0.00284295 3.26937e-06
v -0.0147513 0.00284749 3.26937e-06
v -0.0147513 0.00285202 3.26937e-06
v -0.0147513 0.00285656 3.26937e-06
v -0.0147513 0.0028611 3.26937e-06
v -0.0147513 0.00286563 3.26937e-06
v -0.0147513 0.00287017 3.26937e-06
v -0.0147513 0.0028747 3.26937e-06
v -0.0147513 0.00287924 3.26937e-06
v -0.0148238 0.00280666 3.26937e-06
v -0.0147513 0.00288831 -1.26678e-06
v -0.0147513 0.00288378 -1.26678e-06
v -0.0147513 0.00289738 -1.26678e-06
v -0.0147513 0.00289285 -1.26678e-06
v -0.0147513 0.00290646 -1.26678e-06
v -0.0147513 0.00290192 -1.26678e-06
v -0.0147513 0.00291553 -1.26678e-06
v -0.0147513 0.00291099 -1.26678e-06
v -0.0147513 0.0029246 -1.26678e-06
v -0.0147513 0.00292006 -1.26678e-06
v -0.0147513 0.00293367 -1.26678e-06
v -0.0147513 0.00292914 -1.26678e-06
v -0.0147513 0.00294275 -1.26678e-06
v -0.0147513 0.00293821 -1.26678e-06
v -0.0147513 0.00295182 -1.26678e-06
v -0.0147513 0.00294728 -1.26678e-06
v -0.0147513 0.00296089 -1.26678e-06
v -0.0147513 0.00295635 -1.26678e-06
v -0.0147513 0.00296996 -1.26678e-06
v -0.0147513 0.00296543 -1.26678e-06
v -0.0147513 0.00297903 -1.26678e-06
v -0.0147513 0.0029745 -1.26678e-06
v -0.0147513 0.00298811 -1.26678e-06
v -0.0147513 0.00298357 -1.26678e-06
v -0.0147513 0.00299718 -1.26678e-06
v -0.0147513 0.00299264 -1.26678e-06
v -0.0147513 0.00288378 3.26937e-06
v -0.0147513 0.00288831 3.26937e-06
v -0.0147513 0.00289285 3.26937e-06
v -0.0147513 0.00289738 3.26937e-06
v -0.0147513 0.00290192 3.26937e-06
v -0.0147513 0.00290646 3.26937e-06
v -0.0147513 0.00291099 3.26937e-06
v -0.0147513 0.00291553 3.26937e-06
v -0.0147513 0.00292006 3.26937e-06
v -0.0147513 0.0029246 3.26937e-06
v -0.0147513 0.00292914 3.26937e-06
v -0.0147513 0.00293367 3.26937e-06
v -0.0147513 0.00293821 3.26937e-06
v -0.0147513 0.00294275 3.26937e-06
v -0.0147513 0.00294728 3.26937e-06
v -0.0147513 0.00295182 3.26937e-06
v -0.0147513 0.00295635 3.26937e-06
v -0.0147513 0.00296089 3.26937e-06
v -0.0147513 0.00296543 3.26937e-06
v -0.0147513 0.00296996 3.26937e-06
v -0.0147513 0.0029745 3.26937e-06
v -0.0147513 0.00297903 3.26937e-06
v -0.0147513 0.00298357 3.26937e-06
v -0.0147513 0.00298811 3.26937e-06
v -0.0147513 0.00299264 3.26937e-06
v -0.0147513 0.00299718 3.26937e-06
v -0.0158172 0.00300171 -1.26678e-06
v -0.0158127 0.00300171 -1.26678e-06
v -0.0158082 0.00300171 -1.26678e-06
v -0.0158036 0.00300171 -1.26678e-06
v -0.0157991 0.00300171 -1.26678e-06
v -0.0157946 0.00300171 -1.26678e-06
v -0.01579 0.00300171 -1.26678e-06
v -0.0157855 0.00300171 -1.26678e-06
v -0.015781 0.00300171 -1.26678e-06
v -0.0157764 0.00300171 -1.26678e-06
v -0.0157719 0.00300171 -1.26678e-06
v -0.0157673 0.00300171 -1.26678e-06
v -0.0157628 0.00300171 -1.26678e-06
v -0.0157583 0.00300171 -1.26678e-06
v -0.0157537 0.00300171 -1.26678e-06
v -0.0157492 0.00300171 -1.26678e-06
v -0.0157447 0.00300171 -1.26678e-06
v -0.0157401 0.00300171 -1.26678e-06
v -0.0157356 0.00300171 -1.26678e-06
v -0.0157311 0.00300171 -1.26678e-06
v -0.0157265 0.00300171 -1.26678e-06
v -0.015722 0.00300171 -1.26678e-06
v -0.0157175 0.00300171 -1.26678e-06
v -0.0157129 0.00300171 -1.26678e-06
v -0.0157084 0.00300171 -1.26678e-06
v -0.0157038 0.00300171 -1.26678e-06
v -0.0156993 0.00300171 -1.26678e-06
v -0.0156948 0.00300171 -1.26678e-06
v -0.0156902 0.00300171 -1.26678e-06
v -0.0156857 0.00300171 -1.26678e-06
v -0.0156812 0.00300171 -1.26678e-06
v -0.0156766 0.00300171 -1.26678e-06
v -0.0156721 0.00300171 -1.26678e-06
v -0.0156676 0.00300171 -1.26678e-06
v -0.015663 0.00300171 -1.26678e-06
v -0.0156585 0.00300171 -1.26678e-06
v -0.0156539 0.00300171 -1.26678e-06
v -0.0156494 0.00300171 -1.26678e-06
v -0.0156449 0.00300171 -1.26678e-06
v -0.0156403 0.00300171 -1.26678e-06
v -0.0156358 0.00300171 -1.26678e-06
v -0.0156313 0.00300171 -1.26678e-06
v -0.0156267 0.00300171 -1.26678e-06
v -0.0156222 0.00300171 -1.26678e-06
v -0.0156177 0.00300171 -1.26678e-06
v -0.0156131 0.00300171 -1.26678e-06
v -0.0156086 0.00300171 -1.26678e-06
v -0.015604 0.00300171 -1.26678e-06
v -0.0155995 0.00300171 -1.26678e-06
v -0.015595 0.00300171 -1.26678e-06
v -0.0155904 0.00300171 -1.26678e-06
v -0.0155859 0.00300171 -1.26678e-06
v -0.0155814 0.00300171 -1.26678e-06
v -0.0155768 0.00300171 -1.26678e-06
v -0.0155723 0.00300171 -1.26678e-06
v -0.0155678 0.00300171 -1.26678e-06
v -0.0155632 0.00300171 -1.26678e-06
v -0.0155587 0.00300171 -1.26678e-06
v -0.0155542 0.00300171 -1.26678e-06
v -0.0155496 0.00300171 -1.26678e-06
v -0.0155451 0.00300171 -1.26678e-06
v -0.0155405 0.00300171 -1.26678e-06
v -0.015536 0.00300171 -1.26678e-06
v -0.0155315 0.00300171 -1.26678e-06
v -0.0155269 0.00300171 -1.26678e-06
v -0.0155224 0.00300171 -1.26678e-06
v -0.0155179 0.00300171 -1.26678e-06
v -0.0155133 0.00300171 -1.26678e-06
v -0.0155088 0.00300171 -1.26678e-06
v -0.0155043 0.00300171 -1.26678e-06
v -0.0154997 0.00300171 -1.26678e-06
v -0.0154952 0.00300171 -1.26678e-06
v -0.0154906 0.00300171 -1.26678e-06
v -0.0154861 0.00300171 -1.26678e-06
v -0.0154816 0.00300171 -1.26678e-06
v -0.015477 0.00300171 -1.26678e-06
v -0.0154725 0.00300171 -1.26678e-06
v -0.015468 0.00300171 -1.26678e-06
v -0.0154634 0.00300171 -1.26678e-06
v -0.0154589 0.00300171 -1.26678e-06
v -0.0154544 0.00300171 -1.26678e-06
v -0.0154498 0.00300171 -1.26678e-06
v -0.0154453 0.00300171 -1.26678e-06
v -0.0154407 0.00300171 -1.26678e-06
v -0.0154362 0.00300171 -1.26678e-06
v -0.0154317 0.00300171 -1.26678e-06
v -0.0154271 0.00300171 -1.26678e-06
v -0.0154226 0.00300171 -1.26678e-06
v -0.0154181 0.00300171 -1.26678e-06
v -0.0154135 0.00300171 -1.26678e-06
v -0.015409 0.00300171 -1.26678e-06
v -0.0154045 0.00300171 -1.26678e-06
v -0.0153999 0.00300171 -1.26678e-06
v -0.0153954 0.00300171 -1.26678e-06
v -0.0153909 0.00300171 -1.26678e-06
v -0.0153863 0.00300171 -1.26678e-06
v -0.0153818 0.00300171 -1.26678e-06
v -0.0153772 0.00300171 -1.26678e-06
v -0.0153727 0.00300171 -1.26678e-06
v -0.0153682 0.00300171 -1.26678e-06
v -0.0153636 0.00300171 -1.26678e-06
v -0.0153591 0.00300171 -1.26678e-06
v -0.0153546 0.00300171 -1.26678e-06
v -0.01535 0.00300171 -1.26678e-06
v -0.0153455 0.00300171 -1.26678e-06
v -0.015341 0.00300171 -1.26678e-06
v -0.0153364 0.00300171 -1.26678e-06
v -0.0153319 0.00300171 -1.26678e-06
v -0.0153273 0.00300171 -1.26678e-06
v -0.0158172 0.00300171 3.26937e-06
v -0.0158082 0.00300171 3.26937e-06
v -0.0158127 0.00300171 3.26937e-06
v -0.0157991 0.00300171 3.26937e-06
v -0.0158036 0.00300171 3.26937e-06
v -0.01579 0.00300171 3.26937e-06
v -0.0157946 0.00300171 3.26937e-06
v -0.015781 0.00300171 3.26937e-06
v -0.0157855 0.00300171 3.26937e-06
v -0.0157719 0.00300171 3.26937e-06
v -0.0157764 0.00300171 3.26937e-06
v -0.0157628 0.00300171 3.26937e-06
v -0.0157673 0.00300171 3.26937e-06
v -0.0157537 0.00300171 3.26937e-06
v -0.0157583 0.00300171 3.26937e-06
v -0.0157447 0.00300171 3.26937e-06
v -0.0157492 0.00300171 3.26937e-06
v -0.0157356 0.00300171 3.26937e-06
v -0.0157401 0.00300171 3.26937e-06
v -0.0157265 0.00300171 3.26937e-06
v -0.0157311 0.00300171 3.26937e-06
v -0.0157175 0.00300171 3.26937e-06
v -0.015722 0.00300171 3.26937e-06
v -0.0157084 0.00300171 3.26937e-06
v -0.0157129 0.00300171 3.26937e-06
v -0.0156993 0.00300171 3.26937e-06
v -0.0157038 0.00300171 3.26937e-06
v -0.0156902 0.00300171 3.26937e-06
v -0.0156948 0.00300171 3.26937e-06
v -0.0156812 0.00300171 3.26937e-06
v -0.0156857 0.00300171 3.26937e-06
v -0.0156721 0.00300171 3.26937e-06
v -0.0156766 0.00300171 3.26937e-06
v -0.015663 0.00300171 3.26937e-06
v -0.0156676 0.00300171 3.26937e-06
v -0.0156539 0.00300171 3.26937e-06
v -0.0156585 0.00300171 3.26937e-06
v -0.0156449 0.00300171 3.26937e-06
v -0.0156494 0.00300171 3.26937e-06
v -0.0156358 0.00300171 3.26937e-06
v -0.0156403 0.00300171 3.26937e-06
v -0.0156267 0.00300171 3.26937e-06
v -0.0156313 0.00300171 3.26937e-06
v -0.0156177 0.00300171 3.26937e-06
v -0.0156222 0.00300171 3.26937e-06
v -0.0156086 0.00300171 3.26937e-06
v -0.0156131 0.00300171 3.26937e-06
v -0.0155995 0.00300171 3.26937e-06
v -0.015604 0.00300171 3.26937e-06
v -0.0155904 0.00300171 3.26937e-06
v -0.015595 0.00300171 3.26937e-06
v -0.0155814 0.00300171 3.26937e-06
v -0.0155859 0.00300171 3.26937e-06
v -0.0155723 0.00300171 3.26937e-06
v -0.0155768 0.00300171 3.26937e-06
v -0.0155632 0.00300171 3.26937e-06
v -0.0155678 0.00300171 3.26937e-06
v -0.0155542 0.00300171 3.26937e-06
v -0.0155587 0.00300171 3.26937e-06
v -0.0155451 0.00300171 3.26937e-06
v -0.0155496 0.00300171 3.26937e-06
v -0.015536 0.00300171 3.26937e-06
v -0.0155405 0.00300171 3.26937e-06
v -0.0155269 0.00300171 3.26937e-06
v -0.0155315 0.00300171 3.26937e-06
v -0.0155179 0.00300171 3.26937e-06
v -0.0155224 0.00300171 3.26937e-06
v -0.0155088 0.00300171 3.26937e-06
v -0.0155133 0.00300171 3.26937e-06
v -0.0154997 0.00300171 3.26937e-06
v -0.0155043 0.00300171 3.26937e-06
v -0.0154906 0.00300171 3.26937e-06
v -0.0154952 0.00300171 3.26937e-06
v -0.0154816 0.00300171 3.26937e-06
v -0.0154861 0.00300171 3.26937e-06
v -0.0154725 0.00300171 3.26937e-06
v -0.015477 0.00300171 3.26937e-06
v -0.0154634 0.00300171 3.26937e-06
v -0.015468 0.00300171 3.26937e-06
v -0.0154544 0.00300171 3.26937e-06
v -0.0154589 0.00300171 3.26937e-06
v -0.0154453 0.00300171 3.26937e-06
v -0.0154498 0.00300171 3.26937e-06
v -0.0154362 0.00300171 3.26937e-06
v -0.0154407 0.00300171 3.26937e-06
v -0.0154271 0.00300171 3.26937e-06
v -0.0154317 0.00300171 3.26937e-06
v -0.0154181 0.00300171 3.26937e-06
v -0.0154226 0.00300171 3.26937e-06
v -0.015409 0.00300171 3.26937e-06
v -0.0154135 0.00300171 3.26937e-06
v -0.0153999 0.00300171 3.26937e-06
v -0.0154045 0.00300171 3.26937e-06
v -0.0153909 0.00300171 3.26937e-06
v -0.0153954 0.00300171 3.26937e-06
v -0.0153818 0.00300171 3.26937e-06
v -0.0153863 0.00300171 3.26937e-06
v -0.0153727 0.00300171 3.26937e-06
v -0.0153772 0.00300171 3.26937e-06
v -0.0153636 0.00300171 3.26937e-06
v -0.0153682 0.00300171 3.26937e-06
v -0.0153546 0.00300171 3.26937e-06
v -0.0153591 0.00300171 3.26937e-06
v -0.0153455 0.00300171 3.26937e-06
v -0.01535 0.00300171 3.26937e-06
v -0.0153364 0.00300171 3.26937e-06
v -0.015341 0.00300171 3.26937e-06
v -0.0153273 0.00300171 3.26937e-06
v -0.0153319 0.00300171 3.26937e-06
v -0.0153228 0.00300171 -1.26678e-06
v -0.0153183 0.00300171 -1.26678e-06
v -0.0153137 0.00300171 -1.26678e-06
v -0.0153092 0.00300171 -1.26678e-06
v -0.0153047 0.00300171 -1.26678e-06
v -0.0153001 0.00300171 -1.26678e-06
v -0.0152956 0.00300171 -1.26678e-06
v -0.0152911 0.00300171 -1.26678e-06
v -0.0152865 0.00300171 -1.26678e-06
v -0.015282 0.00300171 -1.26678e-06
v -0.0152774 0.00300171 -1.26678e-06
v -0.0152729 0.00300171 -1.26678e-06
v -0.0152684 0.00300171 -1.26678e-06
v -0.0152638 0.00300171 -1.26678e-06
v -0.0152593 0.00300171 -1.26678e-06
v -0.0152548 0.00300171 -1.26678e-06
v -0.0152502 0.00300171 -1.26678e-06
v -0.0152457 0.00300171 -1.26678e-06
v -0.0152412 0.00300171 -1.26678e-06
v -0.0152366 0.00300171 -1.26678e-06
v -0.0152321 0.00300171 -1.26678e-06
v -0.0152276 0.00300171 -1.26678e-06
v -0.015223 0.00300171 -1.26678e-06
v -0.0152185 0.00300171 -1.26678e-06
v -0.0152139 0.00300171 -1.26678e-06
v -0.0152094 0.00300171 -1.26678e-06
v -0.0152049 0.00300171 -1.26678e-06
v -0.0152003 0.00300171 -1.26678e-06
v -0.0151958 0.00300171 -1.26678e-06
v -0.0151913 0.00300171 -1.26678e-06
v -0.0151867 0.00300171 -1.26678e-06
v -0.0151822 0.00300171 -1.26678e-06
v -0.0151777 0.00300171 -1.26678e-06
v -0.0151731 0.00300171 -1.26678e-06
v -0.0151686 0.00300171 -1.26678e-06
v -0.015164 0.00300171 -1.26678e-06
v -0.0151595 0.00300171 -1.26678e-06
v -0.015155 0.00300171 -1.26678e-06
v -0.0151504 0.00300171 -1.26678e-06
v -0.0151459 0.00300171 -1.26678e-06
v -0.0151414 0.00300171 -1.26678e-06
v -0.0151368 0.00300171 -1.26678e-06
v -0.0151323 0.00300171 -1.26678e-06
v -0.0151278 0.00300171 -1.26678e-06
v -0.0151232 0.00300171 -1.26678e-06
v -0.0151187 0.00300171 -1.26678e-06
v -0.0151142 0.00300171 -1.26678e-06
v -0.0151096 0.00300171 -1.26678e-06
v -0.0151051 0.00300171 -1.26678e-06
v -0.0151005 0.00300171 -1.26678e-06
v -0.015096 0.00300171 -1.26678e-06
v -0.0150915 0.00300171 -1.26678e-06
v -0.0150869 0.00300171 -1.26678e-06
v -0.0150824 0.00300171 -1.26678e-06
v -0.0150779 0.00300171 -1.26678e-06
v -0.0150733 0.00300171 -1.26678e-06
v -0.0150688 0.00300171 -1.26678e-06
v -0.0150643 0.00300171 -1.26678e-06
v -0.0150597 0.00300171 -1.26678e-06
v -0.0150552 0.00300171 -1.26678e-06
v -0.0150506 0.00300171 -1.26678e-06
v -0.0150461 0.00300171 -1.26678e-06
v -0.0150416 0.00300171 -1.26678e-06
v -0.015037 0.00300171 -1.26678e-06
v -0.0150325 0.00300171 -1.26678e-06
v -0.015028 0.00300171 -1.26678e-06
v -0.0150234 0.00300171 -1.26678e-06
v -0.0150189 0.00300171 -1.26678e-06
v -0.0150144 0.00300171 -1.26678e-06
v -0.0150098 0.00300171 -1.26678e-06
v -0.0150053 0.00300171 -1.26678e-06
v -0.0150007 0.00300171 -1.26678e-06
v -0.0149962 0.00300171 -1.26678e-06
v -0.0149917 0.00300171 -1.26678e-06
v -0.0149871 0.00300171 -1.26678e-06
v -0.0149826 0.00300171 -1.26678e-06
v -0.0149781 0.00300171 -1.26678e-06
v -0.0149735 0.00300171 -1.26678e-06
v -0.014969 0.00300171 -1.26678e-06
v -0.0149645 0.00300171 -1.26678e-06
v -0.0149599 0.00300171 -1.26678e-06
v -0.0149554 0.00300171 -1.26678e-06
v -0.0149509 0.00300171 -1.26678e-06
v -0.0149463 0.00300171 -1.26678e-06
v -0.0149418 0.00300171 -1.26678e-06
v -0.0149372 0.00300171 -1.26678e-06
v -0.0149327 0.00300171 -1.26678e-06
v -0.0149282 0.00300171 -1.26678e-06
v -0.0149236 0.00300171 -1.26678e-06
v -0.0149191 0.00300171 -1.26678e-06
v -0.0149146 0.00300171 -1.26678e-06
v -0.01491 0.00300171 -1.26678e-06
v -0.0149055 0.00300171 -1.26678e-06
v -0.014901 0.00300171 -1.26678e-06
v -0.0148964 0.00300171 -1.26678e-06
v -0.0148919 0.00300171 -1.26678e-06
v -0.0148873 0.00300171 -1.26678e-06
v -0.0148828 0.00300171 -1.26678e-06
v -0.0148783 0.00300171 -1.26678e-06
v -0.0148737 0.00300171 -1.26678e-06
v -0.0148692 0.00300171 -1.26678e-06
v -0.0148647 0.00300171 -1.26678e-06
v -0.0148601 0.00300171 -1.26678e-06
v -0.0148556 0.00300171 -1.26678e-06
v -0.0148511 0.00300171 -1.26678e-06
v -0.0148465 0.00300171 -1.26678e-06
v -0.014842 0.00300171 -1.26678e-06
v -0.0148374 0.00300171 -1.26678e-06
v -0.0148329 0.00300171 -1.26678e-06
v -0.0148284 0.00300171 -1.26678e-06
v -0.0148238 0.00300171 -1.26678e-06
v -0.0148193 0.00300171 -1.26678e-06
v -0.0148148 0.00300171 -1.26678e-06
v -0.0148102 0.00300171 -1.26678e-06
v -0.0148057 0.00300171 -1.26678e-06
v -0.0148012 0.00300171 -1.26678e-06
v -0.0147966 0.00300171 -1.26678e-06
v -0.0147921 0.00300171 -1.26678e-06
v -0.0147876 0.00300171 -1.26678e-06
v -0.014783 0.00300171 -1.26678e-06
v -0.0147785 0.00300171 -1.26678e-06
v -0.0147739 0.00300171 -1.26678e-06
v -0.0147694 0.00300171 -1.26678e-06
v -0.0147649 0.00300171 -1.26678e-06
v -0.0147603 0.00300171 -1.26678e-06
v -0.0147558 0.00300171 -1.26678e-06
v -0.0153183 0.00300171 3.26937e-06
v -0.0153228 0.00300171 3.26937e-06
v -0.0153092 0.00300171 3.26937e-06
v -0.0153137 0.00300171 3.26937e-06
v -0.0153001 0.00300171 3.26937e-06
v -0.0153047 0.00300171 3.26937e-06
v -0.0152911 0.00300171 3.26937e-06
v -0.0152956 0.00300171 3.26937e-06
v -0.015282 0.00300171 3.26937e-06
v -0.0152865 0.00300171 3.26937e-06
v -0.0152729 0.00300171 3.26937e-06
v -0.0152774 0.00300171 3.26937e-06
v -0.0152638 0.00300171 3.26937e-06
v -0.0152684 0.00300171 3.26937e-06
v -0.0152548 0.00300171 3.26937e-06
v -0.0152593 0.00300171 3.26937e-06
v -0.0152457 0.00300171 3.26937e-06
v -0.0152502 0.00300171 3.26937e-06
v -0.0152366 0.00300171 3.26937e-06
v -0.0152412 0.00300171 3.26937e-06
v -0.0152276 0.00300171 3.26937e-06
v -0.0152321 0.00300171 3.26937e-06
v -0.0152185 0.00300171 3.26937e-06
v -0.015223 0.00300171 3.26937e-06
v -0.0152094 0.00300171 3.26937e-06
v -0.0152139 0.00300171 3.26937e-06
v -0.0152003 0.00300171 3.26937e-06
v -0.0152049 0.00300171 3.26937e-06
v -0.0151913 0.00300171 3.26937e-06
v -0.0151958 0.00300171 3.26937e-06
v -0.0151822 0.00300171 3.26937e-06
v -0.0151867 0.00300171 3.26937e-06
v -0.0151731 0.00300171 3.26937e-06
v -0.0151777 0.00300171 3.26937e-06
v -0.015164 0.00300171 3.26937e-06
v -0.0151686 0.00300171 3.26937e-06
v -0.015155 0.00300171 3.26937e-06
v -0.0151595 0.00300171 3.26937e-06
v -0.0151459 0.00300171 3.26937e-06
v -0.0151504 0.00300171 3.26937e-06
v -0.0151368 0.00300171 3.26937e-06
v -0.0151414 0.00300171 3.26937e-06
v -0.0151278 0.00300171 3.26937e-06
v -0.0151323 0.00300171 3.26937e-06
v -0.0151187 0.00300171 3.26937e-06
v -0.0151232 0.00300171 3.26937e-06
v -0.0151096 0.00300171 3.26937e-06
v -0.0151142 0.00300171 3.26937e-06
v -0.0151005 0.00300171 3.26937e-06
v -0.0151051 0.00300171 3.26937e-06
v -0.0150915 0.00300171 3.26937e-06
v -0.015096 0.00300171 3.26937e-06
v -0.0150824 0.00300171 3.26937e-06
v -0.0150869 0.00300171 3.26937e-06
v -0.0150733 0.00300171 3.26937e-06
v -0.0150779 0.00300171 3.26937e-06
v -0.0150643 0.00300171 3.26937e-06
v -0.0150688 0.00300171 3.26937e-06
v -0.0150552 0.00300171 3.26937e-06
v -0.0150597 0.00300171 3.26937e-06
v -0.0150461 0.00300171 3.26937e-06
v -0.0150506 0.00300171 3.26937e-06
v -0.015037 0.00300171 3.26937e-06
v -0.0150416 0.00300171 3.26937e-06
v -0.015028 0.00300171 3.26937e-06
v -0.0150325 0.00300171 3.26937e-06
v -0.0150189 0.00300171 3.26937e-06
v -0.0150234 0.00300171 3.26937e-06
v -0.0150098 0.00300171 3.26937e-06
v -0.0150144 0.00300171 3.26937e-06
v -0.0150007 0.00300171 3.26937e-06
v -0.0150053 0.00300171 3.26937e-06
v -0.0149917 0.00300171 3.26937e-06
v -0.0149962 0.00300171 3.26937e-06
v -0.0149826 0.00300171 3.26937e-06
v -0.0149871 0.00300171 3.26937e-06
v -0.0149735 0.00300171 3.26937e-06
v -0.0149781 0.00300171 3.26937e-06
v -0.0149645 0.00300171 3.26937e-06
v -0.014969 0.00300171 3.26937e-06
v -0.0149554 0.00300171 3.26937e-06
v -0.0149599 0.00300171 3.26937e-06
v -0.0149463 0.00300171 3.26937e-06
v -0.0149509 0.00300171 3.26937e-06
v -0.0149372 0.00300171 3.26937e-06
v -0.0149418 0.00300171 3.26937e-06
v -0.0149282 0.00300171 3.26937e-06
v -0.0149327 0.00300171 3.26937e-06
v -0.0149191 0.00300171 3.26937e-06
v -0.0149236 0.00300171 3.26937e-06
v -0.01491 0.00300171 3.26937e-06
v -0.0149146 0.00300171 3.26937e-06
v -0.014901 0.00300171 3.26937e-06
v -0.0149055 0.00300171 3.26937e-06
v -0.0148919 0.00300171 3.26937e-06
v -0.0148964 0.00300171 3.26937e-06
v -0.0148828 0.00300171 3.26937e-06
v -0.0148873 0.00300171 3.26937e-06
v -0.0148737 0.00300171 3.26937e-06
v -0.0148783 0.00300171 3.26937e-06
v -0.0148647 0.00300171 3.26937e-06
v -0.0148692 0.00300171 3.26937e-06
v -0.0148556 0.00300171 3.26937e-06
v -0.0148601 0.00300171 3.26937e-06
v -0.0148465 0.00300171 3.26937e-06
v -0.0148511 0.00300171 3.26937e-06
v -0.0148374 0.00300171 3.26937e-06
v -0.014842 0.00300171 3.26937e-06
v -0.0148284 0.00300171 3.26937e-06
v -0.0148329 0.00300171 3.26937e-06
v -0.0148193 0.00300171 3.26937e-06
v -0.0148238 0.00300171 3.26937e-06
v -0.0148102 0.00300171 3.26937e-06
v -0.0148148 0.00300171 3.26937e-06
v -0.0148012 0.00300171 3.26937e-06
v -0.0148057 0.00300171 3.26937e-06
v -0.0147921 0.00300171 3.26937e-06
v -0.0147966 0.00300171 3.26937e-06
v -0.014783 0.00300171 3.26937e-06
v -0.0147876 0.00300171 3.26937e-06
v -0.0147739 0.00300171 3.26937e-06
v -0.0147785 0.00300171 3.26937e-06
v -0.0147649 0.00300171 3.26937e-06
v -0.0147694 0.00300171 3.26937e-06
v -0.0147558 0.00300171 3.26937e-06
v -0.0147603 0.00300171 3.26937e-06
# </points>

# <edges count="1334">
l 23 863
l 864 865
l 866 867
l 865 866
l 863 864
l 868 869
l 870 871
l 869 870
l 872 873
l 874 875
l 873 874
l 871 872
l 867 868
l 876 877
l 878 879
l 877 878
l 880 881
l 882 883
l 881 882
l 879 880
l 884 885
l 886 887
l 885 886
l 888 889
l 890 891
l 889 890
l 887 888
l 883 884
l 892 893
l 894 895
l 893 894
l 896 897
l 898 899
l 897 898
l 895 896
l 900 901
l 902 903
l 901 902
l 904 905
l 906 907
l 905 906
l 903 904
l 899 900
l 891 892
l 875 876
l 908 909
l 910 911
l 909 910
l 912 913
l 914 915
l 913 914
l 911 912
l 916 917
l 918 919
l 917 918
l 920 921
l 922 923
l 921 922
l 919 920
l 915 916
l 924 925
l 926 927
l 925 926
l 928 929
l 930 931
l 929 930
l 927 928
l 932 933
l 934 935
l 933 934
l 936 937
l 938 939
l 937 938
l 935 936
l 931 932
l 923 924
l 940 941
l 942 943
l 941 942
l 944 945
l 946 947
l 945 946
l 943 944
l 948 949
l 950 951
l 949 950
l 952 953
l 954 955
l 953 954
l 951 952
l 947 948
l 956 957
l 958 959
l 957 958
l 960 961
l 962 963
l 961 962
l 959 960
l 964 965
l 966 967
l 965 966
l 968 969
l 970 971
l 969 970
l 967 968
l 963 964
l 955 956
l 939 940
l 907 908
l 972 32
l 973 974
l 975 976
l 976 973
l 974 972
l 977 978
l 979 980
l 980 977
l 981 982
l 983 984
l 984 981
l 982 979
l 978 975
l 985 986
l 987 988
l 988 985
l 989 990
l 991 992
l 992 989
l 990 987
l 993 994
l 995 996
l 996 993
l 997 998
l 999 1000
l 1000 997
l 998 995
l 994 991
l 1001 1002
l 1003 1004
l 1004 1001
l 1005 1006
l 1007 1008
l 1008 1005
l 1006 1003
l 1009 1010
l 1011 1012
l 1012 1009
l 1013 1014
l 1015 1016
l 1016 1013
l 1014 1011
l 1010 1007
l 1002 999
l 986 983
l 1017 1018
l 1019 1020
l 1020 1017
l 1021 1022
l 1023 1024
l 1024 1021
l 1022 1019
l 1025 1026
l 1027 1028
l 1028 1025
l 1029 1030
l 1031 1032
l 1032 1029
l 1030 1027
l 1026 1023
l 1033 1034
l 1035 1036
l 1036 1033
l 1037 1038
l 1039 1040
l 1040 1037
l 1038 1035
l 1041 1042
l 1043 1044
l 1044 1041
l 1045 1046
l 1047 1048
l 1048 1045
l 1046 1043
l 1042 1039
l 1034 1031
l 1049 1050
l 1051 1052
l 1052 1049
l 1053 1054
l 1055 1056
l 1056 1053
l 1054 1051
l 1057 1058
l 1059 1060
l 1060 1057
l 1061 1062
l 1063 1064
l 1064 1061
l 1062 1059
l 1058 1055
l 1065 1066
l 1067 1068
l 1068 1065
l 1069 1070
l 1071 1072
l 1072 1069
l 1070 1067
l 1073 1074
l 1075 1076
l 1076 1073
l 1077 1078
l 1079 1080
l 1080 1077
l 1078 1075
l 1074 1071
l 1066 1063
l 1050 1047
l 1018 1015
l 1081 1082
l 1083 1084
l 1082 1083
l 1085 1086
l 1087 1088
l 1086 1087
l 1084 1085
l 1089 1090
l 1091 1092
l 1090 1091
l 1093 1094
l 1095 1096
l 1094 1095
l 1092 1093
l 1088 1089
l 1097 1098
l 1099 1100
l 1098 1099
l 1101 1102
l 1103 1104
l 1102 1103
l 1100 1101
l 1105 1106
l 1107 1108
l 1106 1107
l 1109 1110
l 1111 1112
l 1110 1111
l 1108 1109
l 1104 1105
l 1096 1097
l 1113 1114
l 1115 1116
l 1114 1115
l 1117 1118
l 1119 1120
l 1118 1119
l 1116 1117
l 1121 1122
l 1123 1124
l 1122 1123
l 1125 1126
l 1127 1128
l 1126 1127
l 1124 1125
l 1120 1121
l 1129 1130
l 1131 1132
l 1130 1131
l 1133 1134
l 1135 1136
l 1134 1135
l 1132 1133
l 1137 1138
l 1139 1140
l 1138 1139
l 1141 1142
l 1143 1144
l 1142 1143
l 1140 1141
l 1136 1137
l 1128 1129
l 1112 1113
l 1145 1146
l 1147 1148
l 1146 1147
l 1149 1150
l 1151 1152
l 1150 1151
l 1148 1149
l 1153 1154
l 1155 1156
l 1154 1155
l 1157 1158
l 1159 1160
l 1158 1159
l 1156 1157
l 1152 1153
l 1161 1162
l 1163 1164
l 1162 1163
l 1165 1166
l 1167 1168
l 1166 1167
l 1164 1165
l 1169 1170
l 1171 1172
l 1170 1171
l 1173 1174
l 1175 1176
l 1174 1175
l 1172 1173
l 1168 1169
l 1160 1161
l 1177 1178
l 1179 1180
l 1178 1179
l 1181 1182
l 1183 1184
l 1182 1183
l 1180 1181
l 1185 1186
l 1187 1188
l 1186 1187
l 1189 1190
l 1191 1192
l 1190 1191
l 1188 1189
l 1184 1185
l 1193 1194
l 1195 1196
l 1194 1195
l 1197 1198
l 1199 1200
l 1198 1199
l 1196 1197
l 1201 1202
l 1203 1204
l 1202 1203
l 1205 1206
l 1206 179
l 1204 1205
l 1200 1201
l 1192 1193
l 1176 1177
l 1144 1145
l 1207 1208
l 1209 1210
l 1210 1207
l 1211 1212
l 1213 1214
l 1214 1211
l 1212 1209
l 1215 1216
l 1217 1218
l 1218 1215
l 1219 1220
l 1221 1222
l 1222 1219
l 1220 1217
l 1216 1213
l 1223 1224
l 1225 1226
l 1226 1223
l 1227 1228
l 1229 1230
l 1230 1227
l 1228 1225
l 1231 1232
l 1233 1234
l 1234 1231
l 1235 1236
l 1237 1238
l 1238 1235
l 1236 1233
l 1232 1229
l 1224 1221
l 1239 1240
l 1241 1242
l 1242 1239
l 1243 1244
l 1245 1246
l 1246 1243
l 1244 1241
l 1247 1248
l 1249 1250
l 1250 1247
l 1251 1252
l 1253 1254
l 1254 1251
l 1252 1249
l 1248 1245
l 1255 1256
l 1257 1258
l 1258 1255
l 1259 1260
l 1261 1262
l 1262 1259
l 1260 1257
l 1263 1264
l 1265 1266
l 1266 1263
l 1267 1268
l 1269 1270
l 1270 1267
l 1268 1265
l 1264 1261
l 1256 1253
l 1240 1237
l 1271 1272
l 1273 1274
l 1274 1271
l 1275 1276
l 1277 1278
l 1278 1275
l 1276 1273
l 1279 1280
l 1281 1282
l 1282 1279
l 1283 1284
l 1285 1286
l 1286 1283
l 1284 1281
l 1280 1277
l 1287 1288
l 1289 1290
l 1290 1287
l 1291 1292
l 1293 1294
l 1294 1291
l 1292 1289
l 1295 1296
l 1297 1298
l 1298 1295
l 1299 1300
l 1301 1302
l 1302 1299
l 1300 1297
l 1296 1293
l 1288 1285
l 1303 1304
l 1305 1306
l 1306 1303
l 1307 1308
l 1309 1310
l 1310 1307
l 1308 1305
l 1311 1312
l 1313 1314
l 1314 1311
l 1315 1316
l 1317 1318
l 1318 1315
l 1316 1313
l 1312 1309
l 1319 1320
l 1321 1322
l 1322 1319
l 1323 1324
l 1325 1326
l 1326 1323
l 1324 1321
l 1327 1328
l 1329 1330
l 1330 1327
l 1331 1332
l 180 1331
l 1332 1329
l 1328 1325
l 1320 1317
l 1304 1301
l 1272 1269
l 971 1081
l 1208 1079
l 2 3
l 1 2
l 4 1
l 181 4
l 182 5
l 183 184
l 185 186
l 186 183
l 184 181
l 6 182
l 3 6
l 187 188
l 7 187
l 5 7
l 189 190
l 191 192
l 190 191
l 193 194
l 195 196
l 194 195
l 192 193
l 188 189
l 197 198
l 199 200
l 200 197
l 201 202
l 203 204
l 204 201
l 202 199
l 205 206
l 207 208
l 208 205
l 209 210
l 211 212
l 212 209
l 210 207
l 206 203
l 198 185
l 213 214
l 215 216
l 216 213
l 217 218
l 219 220
l 220 217
l 218 215
l 221 222
l 223 224
l 224 221
l 225 226
l 227 228
l 228 225
l 226 223
l 222 219
l 229 230
l 231 232
l 232 229
l 233 234
l 235 236
l 236 233
l 234 231
l 237 238
l 239 240
l 240 237
l 241 242
l 243 244
l 244 241
l 242 239
l 238 235
l 230 227
l 214 211
l 245 246
l 247 248
l 248 245
l 249 250
l 251 252
l 252 249
l 250 247
l 253 254
l 255 256
l 256 253
l 257 258
l 259 260
l 260 257
l 258 255
l 254 251
l 261 262
l 263 264
l 264 261
l 265 266
l 267 268
l 268 265
l 266 263
l 269 270
l 271 272
l 272 269
l 273 274
l 275 276
l 276 273
l 274 271
l 270 267
l 262 259
l 277 278
l 279 280
l 280 277
l 281 282
l 283 284
l 284 281
l 282 279
l 285 286
l 287 288
l 288 285
l 289 290
l 291 292
l 292 289
l 290 287
l 286 283
l 293 294
l 295 296
l 296 293
l 297 298
l 299 300
l 300 297
l 298 295
l 301 302
l 303 304
l 304 301
l 305 306
l 307 308
l 308 305
l 306 303
l 302 299
l 294 291
l 278 275
l 246 243
l 9 10
l 10 8
l 8 11
l 11 309
l 12 310
l 311 312
l 313 314
l 312 313
l 309 311
l 310 13
l 13 9
l 315 316
l 316 14
l 14 12
l 317 318
l 319 320
l 320 317
l 321 322
l 323 324
l 324 321
l 322 319
l 318 315
l 325 326
l 327 328
l 326 327
l 329 330
l 331 332
l 330 331
l 328 329
l 333 334
l 335 336
l 334 335
l 337 338
l 339 340
l 338 339
l 336 337
l 332 333
l 314 325
l 341 342
l 343 344
l 342 343
l 345 346
l 347 348
l 346 347
l 344 345
l 349 350
l 351 352
l 350 351
l 353 354
l 355 356
l 354 355
l 352 353
l 348 349
l 357 358
l 359 360
l 358 359
l 361 362
l 363 364
l 362 363
l 360 361
l 365 366
l 367 368
l 366 367
l 369 370
l 371 372
l 370 371
l 368 369
l 364 365
l 356 357
l 340 341
l 373 374
l 375 376
l 374 375
l 377 378
l 379 380
l 378 379
l 376 377
l 381 382
l 383 384
l 382 383
l 385 386
l 387 388
l 386 387
l 384 385
l 380 381
l 389 390
l 391 392
l 390 391
l 393 394
l 395 396
l 394 395
l 392 393
l 397 398
l 399 400
l 398 399
l 401 402
l 403 404
l 402 403
l 400 401
l 396 397
l 388 389
l 405 406
l 407 408
l 406 407
l 409 410
l 411 412
l 410 411
l 408 409
l 413 414
l 415 416
l 414 415
l 417 418
l 419 420
l 418 419
l 416 417
l 412 413
l 421 422
l 423 424
l 422 423
l 425 426
l 427 428
l 426 427
l 424 425
l 429 430
l 431 432
l 430 431
l 433 434
l 435 436
l 434 435
l 432 433
l 428 429
l 420 421
l 404 405
l 372 373
l 437 438
l 439 440
l 438 439
l 441 442
l 443 444
l 442 443
l 440 441
l 445 446
l 447 448
l 446 447
l 449 450
l 451 452
l 450 451
l 448 449
l 444 445
l 453 454
l 455 15
l 15 453
l 456 457
l 16 455
l 457 16
l 458 459
l 460 17
l 17 458
l 461 462
l 18 460
l 462 18
l 463 464
l 465 466
l 464 465
l 467 468
l 19 469
l 469 467
l 470 471
l 472 473
l 471 472
l 474 475
l 476 477
l 477 474
l 454 463
l 468 456
l 459 470
l 475 461
l 478 479
l 480 481
l 479 480
l 482 483
l 484 485
l 483 484
l 486 487
l 488 489
l 489 486
l 490 491
l 492 493
l 491 492
l 494 495
l 496 497
l 495 496
l 498 499
l 500 501
l 501 498
l 481 490
l 485 494
l 499 488
l 502 19
l 466 478
l 473 482
l 487 476
l 503 21
l 504 505
l 505 22
l 20 503
l 506 507
l 507 23
l 22 506
l 493 20
l 497 504
l 21 500
l 452 502
l 508 509
l 510 511
l 511 508
l 512 513
l 514 515
l 515 512
l 513 510
l 516 517
l 518 519
l 519 516
l 520 521
l 522 523
l 523 520
l 521 518
l 517 514
l 524 525
l 525 24
l 24 526
l 527 528
l 526 25
l 25 527
l 529 530
l 530 26
l 26 531
l 532 533
l 531 27
l 27 532
l 534 535
l 536 537
l 537 534
l 538 539
l 540 28
l 539 540
l 541 542
l 543 544
l 544 541
l 545 546
l 547 548
l 546 547
l 535 524
l 528 538
l 542 529
l 533 545
l 549 550
l 551 552
l 552 549
l 553 554
l 555 556
l 556 553
l 557 558
l 559 560
l 558 559
l 561 562
l 563 564
l 564 561
l 565 566
l 567 568
l 568 565
l 569 570
l 571 572
l 570 571
l 562 551
l 566 555
l 560 569
l 28 573
l 550 536
l 554 543
l 548 557
l 30 574
l 575 576
l 31 575
l 574 29
l 577 578
l 32 577
l 578 31
l 29 563
l 576 567
l 572 30
l 573 522
l 579 580
l 581 582
l 582 579
l 583 584
l 585 586
l 586 583
l 584 581
l 587 588
l 589 590
l 590 587
l 591 592
l 593 594
l 594 591
l 592 589
l 588 585
l 595 596
l 597 598
l 598 595
l 599 600
l 601 602
l 602 599
l 600 597
l 603 604
l 605 606
l 606 603
l 607 608
l 609 610
l 610 607
l 608 605
l 604 601
l 596 593
l 611 612
l 613 614
l 614 611
l 615 616
l 617 618
l 618 615
l 616 613
l 619 620
l 621 622
l 622 619
l 623 624
l 625 626
l 626 623
l 624 621
l 620 617
l 627 628
l 629 630
l 630 627
l 631 632
l 33 34
l 34 633
l 633 631
l 632 629
l 36 37
l 37 35
l 634 38
l 39 40
l 40 634
l 38 41
l 41 36
l 635 42
l 35 43
l 43 635
l 42 44
l 44 33
l 636 39
l 628 625
l 612 609
l 637 45
l 46 47
l 47 637
l 638 46
l 639 48
l 49 50
l 50 639
l 48 51
l 51 638
l 640 49
l 641 52
l 642 643
l 53 54
l 54 642
l 644 53
l 643 641
l 645 646
l 52 55
l 55 645
l 646 640
l 647 648
l 649 650
l 650 647
l 651 652
l 653 654
l 654 651
l 652 649
l 56 57
l 655 56
l 58 656
l 656 655
l 59 60
l 657 59
l 61 657
l 62 61
l 63 62
l 64 58
l 60 64
l 57 653
l 648 644
l 65 66
l 658 65
l 68 659
l 69 70
l 659 69
l 71 67
l 70 71
l 67 658
l 72 660
l 73 74
l 661 73
l 75 661
l 76 75
l 77 76
l 78 662
l 79 77
l 662 79
l 80 68
l 74 80
l 81 72
l 66 81
l 83 84
l 85 83
l 86 82
l 663 86
l 84 663
l 88 89
l 87 88
l 90 87
l 664 90
l 89 665
l 91 85
l 665 91
l 92 666
l 667 668
l 93 92
l 668 94
l 94 93
l 95 96
l 666 95
l 97 98
l 99 97
l 669 670
l 671 672
l 672 669
l 673 674
l 675 676
l 676 673
l 674 671
l 98 664
l 96 677
l 100 99
l 677 100
l 670 667
l 678 679
l 680 681
l 681 678
l 682 683
l 684 685
l 685 682
l 683 680
l 686 687
l 688 689
l 689 686
l 690 691
l 692 693
l 693 690
l 691 688
l 687 684
l 101 102
l 82 101
l 102 694
l 103 78
l 694 103
l 679 675
l 104 63
l 660 104
l 45 105
l 105 636
l 695 696
l 697 698
l 696 697
l 699 700
l 701 702
l 700 701
l 698 699
l 703 704
l 705 706
l 704 705
l 707 708
l 709 710
l 708 709
l 706 707
l 702 703
l 711 712
l 713 714
l 712 713
l 715 716
l 717 718
l 716 717
l 714 715
l 719 720
l 721 722
l 720 721
l 723 724
l 725 726
l 724 725
l 722 723
l 718 719
l 710 711
l 727 728
l 729 730
l 728 729
l 731 732
l 733 734
l 732 733
l 730 731
l 735 736
l 737 738
l 736 737
l 739 740
l 741 742
l 740 741
l 738 739
l 734 735
l 743 744
l 745 746
l 744 745
l 747 748
l 107 106
l 749 107
l 748 749
l 746 747
l 108 109
l 110 108
l 111 750
l 112 113
l 750 112
l 114 111
l 109 114
l 115 751
l 116 110
l 751 116
l 117 115
l 106 117
l 113 752
l 742 743
l 726 727
l 118 753
l 119 120
l 753 119
l 120 754
l 121 755
l 122 123
l 755 122
l 124 121
l 754 124
l 123 756
l 125 757
l 758 759
l 126 127
l 759 126
l 127 760
l 757 758
l 761 762
l 128 125
l 762 128
l 756 761
l 763 764
l 765 766
l 764 765
l 767 768
l 769 770
l 768 769
l 766 767
l 129 130
l 130 771
l 772 131
l 771 772
l 132 133
l 133 773
l 773 134
l 134 136
l 136 135
l 131 137
l 137 132
l 770 129
l 760 763
l 138 139
l 139 774
l 775 141
l 142 143
l 143 775
l 140 144
l 144 142
l 774 140
l 776 145
l 146 147
l 147 777
l 777 148
l 148 150
l 150 149
l 778 151
l 149 152
l 152 778
l 141 153
l 153 146
l 145 154
l 154 138
l 157 158
l 158 156
l 155 159
l 159 779
l 779 157
l 161 162
l 162 160
l 160 163
l 163 780
l 781 161
l 156 164
l 164 781
l 782 165
l 783 784
l 166 783
l 165 167
l 167 166
l 168 169
l 169 782
l 171 172
l 172 170
l 785 786
l 787 788
l 786 787
l 789 790
l 791 792
l 790 791
l 788 789
l 780 171
l 793 168
l 170 173
l 173 793
l 784 785
l 794 795
l 796 797
l 795 796
l 798 799
l 800 801
l 799 800
l 797 798
l 802 803
l 804 805
l 803 804
l 806 807
l 808 809
l 807 808
l 805 806
l 801 802
l 174 175
l 175 155
l 810 174
l 151 176
l 176 810
l 792 794
l 135 177
l 177 776
l 178 118
l 752 178
l 811 812
l 813 814
l 814 811
l 815 816
l 817 818
l 818 815
l 816 813
l 819 820
l 821 822
l 822 819
l 823 824
l 825 826
l 826 823
l 824 821
l 820 817
l 827 828
l 829 830
l 830 827
l 831 832
l 833 834
l 834 831
l 832 829
l 835 836
l 179 835
l 836 833
l 828 825
l 837 838
l 839 840
l 838 839
l 841 842
l 843 844
l 842 843
l 840 841
l 845 846
l 847 848
l 846 847
l 849 850
l 851 852
l 850 851
l 848 849
l 844 845
l 853 854
l 855 856
l 854 855
l 857 858
l 859 860
l 858 859
l 856 857
l 861 862
l 862 180
l 860 861
l 852 853
l 580 307
l 436 695
l 196 437
l 812 692
l 509 323
l 809 837
l 23 32
l 180 179
# </edges>
