# Wavefront OBJ file written 2025-12-21T19:37:58
o wall_edgeMesh

# points : 644
# lines  : 724

# <points count="644">
v -0.0158717 0.00283388 -1.26678e-06
v -0.0158717 0.00283388 3.26937e-06
v -0.0158626 0.00282027 -1.26678e-06
v -0.0158626 0.00282027 3.26937e-06
v -0.0158626 0.00282481 3.26937e-06
v -0.0158626 0.00282481 -1.26678e-06
v -0.0158671 0.00282481 -1.26678e-06
v -0.0158671 0.00282481 3.26937e-06
v -0.0158581 0.00281573 -1.26678e-06
v -0.0158581 0.00281573 3.26937e-06
v -0.0158581 0.00282027 3.26937e-06
v -0.0158581 0.00282027 -1.26678e-06
v -0.0158671 0.00283388 3.26937e-06
v -0.0158671 0.00283388 -1.26678e-06
v -0.0158989 0.00296089 -1.26678e-06
v -0.0158989 0.00296089 3.26937e-06
v -0.0158717 0.00296089 3.26937e-06
v -0.0158717 0.00296089 -1.26678e-06
v -0.0150733 0.00281573 -1.26678e-06
v -0.0150733 0.00281573 3.26937e-06
v -0.0150733 0.00282027 -1.26678e-06
v -0.0150733 0.00282027 3.26937e-06
v -0.0150688 0.00282481 -1.26678e-06
v -0.0150688 0.00282481 3.26937e-06
v -0.0150688 0.00282027 3.26937e-06
v -0.0150688 0.00282027 -1.26678e-06
v -0.0150597 0.00282481 -1.26678e-06
v -0.0150597 0.00282481 3.26937e-06
v -0.0150552 0.00283388 -1.26678e-06
v -0.0150552 0.00283388 3.26937e-06
v -0.0150552 0.00282934 3.26937e-06
v -0.0150552 0.00282934 -1.26678e-06
v -0.0150597 0.00282934 -1.26678e-06
v -0.0150597 0.00282934 3.26937e-06
v -0.0150506 0.00283841 -1.26678e-06
v -0.0150506 0.00283841 3.26937e-06
v -0.0150416 0.00284295 -1.26678e-06
v -0.0150416 0.00284295 3.26937e-06
v -0.0150416 0.00283841 3.26937e-06
v -0.0150416 0.00283841 -1.26678e-06
v -0.0150506 0.00283388 3.26937e-06
v -0.0150506 0.00283388 -1.26678e-06
v -0.0150325 0.00284749 -1.26678e-06
v -0.0150325 0.00284749 3.26937e-06
v -0.0150234 0.00285202 -1.26678e-06
v -0.0150234 0.00285202 3.26937e-06
v -0.0150234 0.00284749 3.26937e-06
v -0.0150234 0.00284749 -1.26678e-06
v -0.0150144 0.00285656 -1.26678e-06
v -0.0150144 0.00285656 3.26937e-06
v -0.0150053 0.0028611 -1.26678e-06
v -0.0150053 0.0028611 3.26937e-06
v -0.0150053 0.00285656 3.26937e-06
v -0.0150053 0.00285656 -1.26678e-06
v -0.0150144 0.00285202 3.26937e-06
v -0.0150144 0.00285202 -1.26678e-06
v -0.0149871 0.0028611 -1.26678e-06
v -0.0149871 0.0028611 3.26937e-06
v -0.0149871 0.00286563 -1.26678e-06
v -0.0149871 0.00286563 3.26937e-06
v -0.014969 0.00287017 -1.26678e-06
v -0.014969 0.00287017 3.26937e-06
v -0.014969 0.00286563 3.26937e-06
v -0.014969 0.00286563 -1.26678e-06
v -0.0150325 0.00284295 3.26937e-06
v -0.0150325 0.00284295 -1.26678e-06
v -0.0149236 0.00286563 -1.26678e-06
v -0.0149236 0.00286563 3.26937e-06
v -0.0149236 0.00287017 3.26937e-06
v -0.0149236 0.00287017 -1.26678e-06
v -0.01491 0.00286563 -1.26678e-06
v -0.01491 0.00286563 3.26937e-06
v -0.0149055 0.00285656 -1.26678e-06
v -0.0149055 0.00285656 3.26937e-06
v -0.0149055 0.0028611 3.26937e-06
v -0.0149055 0.0028611 -1.26678e-06
v -0.0148919 0.00284749 -1.26678e-06
v -0.0148919 0.00284749 3.26937e-06
v -0.0148919 0.00285202 3.26937e-06
v -0.0148919 0.00285202 -1.26678e-06
v -0.0148964 0.00285202 -1.26678e-06
v -0.0148964 0.00285202 3.26937e-06
v -0.0148964 0.00285656 3.26937e-06
v -0.0148964 0.00285656 -1.26678e-06
v -0.01491 0.0028611 -1.26678e-06
v -0.01491 0.0028611 3.26937e-06
v -0.0148193 0.00280213 -1.26678e-06
v -0.0148193 0.00280213 3.26937e-06
v -0.0148193 0.00280666 3.26937e-06
v -0.0148193 0.00280666 -1.26678e-06
v -0.0148284 0.00280666 -1.26678e-06
v -0.0148284 0.00280666 3.26937e-06
v -0.0148783 0.00283841 -1.26678e-06
v -0.0148783 0.00283841 3.26937e-06
v -0.0148783 0.00284295 3.26937e-06
v -0.0148783 0.00284295 -1.26678e-06
v -0.0148828 0.00284295 -1.26678e-06
v -0.0148828 0.00284295 3.26937e-06
v -0.0148647 0.00282934 -1.26678e-06
v -0.0148647 0.00282934 3.26937e-06
v -0.0148647 0.00283388 3.26937e-06
v -0.0148647 0.00283388 -1.26678e-06
v -0.0148692 0.00283388 -1.26678e-06
v -0.0148692 0.00283388 3.26937e-06
v -0.0148556 0.00282934 -1.26678e-06
v -0.0148556 0.00282934 3.26937e-06
v -0.0148692 0.00283841 3.26937e-06
v -0.0148692 0.00283841 -1.26678e-06
v -0.0148556 0.00282481 -1.26678e-06
v -0.0148556 0.00282481 3.26937e-06
v -0.0148828 0.00284749 -1.26678e-06
v -0.0148828 0.00284749 3.26937e-06
v -0.0148511 0.00282027 -1.26678e-06
v -0.0148511 0.00282027 3.26937e-06
v -0.0148511 0.00282481 3.26937e-06
v -0.0148511 0.00282481 -1.26678e-06
v -0.0148374 0.0028112 -1.26678e-06
v -0.0148374 0.0028112 3.26937e-06
v -0.0148374 0.00281573 3.26937e-06
v -0.0148374 0.00281573 -1.26678e-06
v -0.014842 0.00281573 -1.26678e-06
v -0.014842 0.00281573 3.26937e-06
v -0.014842 0.00282027 3.26937e-06
v -0.014842 0.00282027 -1.26678e-06
v -0.0148284 0.0028112 -1.26678e-06
v -0.0148284 0.0028112 3.26937e-06
v -0.0148148 0.00279759 -1.26678e-06
v -0.0148148 0.00279759 3.26937e-06
v -0.0148057 0.00279305 -1.26678e-06
v -0.0148057 0.00279305 3.26937e-06
v -0.0148057 0.00279759 3.26937e-06
v -0.0148057 0.00279759 -1.26678e-06
v -0.0148012 0.00279305 -1.26678e-06
v -0.0148012 0.00279305 3.26937e-06
v -0.0148148 0.00280213 3.26937e-06
v -0.0148148 0.00280213 -1.26678e-06
v -0.0147921 0.00278398 -1.26678e-06
v -0.0147921 0.00278398 3.26937e-06
v -0.0147921 0.00278852 3.26937e-06
v -0.0147921 0.00278852 -1.26678e-06
v -0.0147876 0.00277945 -1.26678e-06
v -0.0147876 0.00277945 3.26937e-06
v -0.0147876 0.00278398 3.26937e-06
v -0.0147876 0.00278398 -1.26678e-06
v -0.0148012 0.00278852 -1.26678e-06
v -0.0148012 0.00278852 3.26937e-06
v -0.0147649 0.00276584 -1.26678e-06
v -0.0147649 0.00276584 3.26937e-06
v -0.0147649 0.00277037 3.26937e-06
v -0.0147649 0.00277037 -1.26678e-06
v -0.0147739 0.00277037 -1.26678e-06
v -0.0147739 0.00277037 3.26937e-06
v -0.0147558 0.00276584 -1.26678e-06
v -0.0147558 0.00276584 3.26937e-06
v -0.0147558 0.0027613 -1.26678e-06
v -0.0147558 0.0027613 3.26937e-06
v -0.0147513 0.0027613 -1.26678e-06
v -0.0147513 0.0027613 3.26937e-06
v -0.0147785 0.00277491 -1.26678e-06
v -0.0147785 0.00277491 3.26937e-06
v -0.0147785 0.00277945 3.26937e-06
v -0.0147785 0.00277945 -1.26678e-06
v -0.0147739 0.00277491 -1.26678e-06
v -0.0147739 0.00277491 3.26937e-06
v -0.0158717 0.00283841 3.26937e-06
v -0.0158717 0.00284295 3.26937e-06
v -0.0158717 0.00284295 -1.26678e-06
v -0.0158717 0.00283841 -1.26678e-06
v -0.0158717 0.00284749 3.26937e-06
v -0.0158717 0.00285202 3.26937e-06
v -0.0158717 0.00285202 -1.26678e-06
v -0.0158717 0.00284749 -1.26678e-06
v -0.0158717 0.00285656 3.26937e-06
v -0.0158717 0.0028611 3.26937e-06
v -0.0158717 0.0028611 -1.26678e-06
v -0.0158717 0.00285656 -1.26678e-06
v -0.0158717 0.00286563 3.26937e-06
v -0.0158717 0.00287017 3.26937e-06
v -0.0158717 0.00287017 -1.26678e-06
v -0.0158717 0.00286563 -1.26678e-06
v -0.0158717 0.0028747 3.26937e-06
v -0.0158717 0.00287924 3.26937e-06
v -0.0158717 0.00287924 -1.26678e-06
v -0.0158717 0.0028747 -1.26678e-06
v -0.0158535 0.00281573 -1.26678e-06
v -0.0158535 0.00281573 3.26937e-06
v -0.0158671 0.00282934 3.26937e-06
v -0.0158671 0.00282934 -1.26678e-06
v -0.015849 0.00281573 -1.26678e-06
v -0.0158445 0.00281573 -1.26678e-06
v -0.0158445 0.00281573 3.26937e-06
v -0.015849 0.00281573 3.26937e-06
v -0.0158399 0.00281573 -1.26678e-06
v -0.0158354 0.00281573 -1.26678e-06
v -0.0158354 0.00281573 3.26937e-06
v -0.0158399 0.00281573 3.26937e-06
v -0.0158309 0.00281573 -1.26678e-06
v -0.0158263 0.00281573 -1.26678e-06
v -0.0158263 0.00281573 3.26937e-06
v -0.0158309 0.00281573 3.26937e-06
v -0.0158218 0.00281573 -1.26678e-06
v -0.0158172 0.00281573 -1.26678e-06
v -0.0158172 0.00281573 3.26937e-06
v -0.0158218 0.00281573 3.26937e-06
v -0.0158127 0.00281573 -1.26678e-06
v -0.0158082 0.00281573 -1.26678e-06
v -0.0158082 0.00281573 3.26937e-06
v -0.0158127 0.00281573 3.26937e-06
v -0.0158036 0.00281573 -1.26678e-06
v -0.0157991 0.00281573 -1.26678e-06
v -0.0157991 0.00281573 3.26937e-06
v -0.0158036 0.00281573 3.26937e-06
v -0.0157946 0.00281573 -1.26678e-06
v -0.01579 0.00281573 -1.26678e-06
v -0.01579 0.00281573 3.26937e-06
v -0.0157946 0.00281573 3.26937e-06
v -0.0157855 0.00281573 -1.26678e-06
v -0.015781 0.00281573 -1.26678e-06
v -0.015781 0.00281573 3.26937e-06
v -0.0157855 0.00281573 3.26937e-06
v -0.0157764 0.00281573 -1.26678e-06
v -0.0157719 0.00281573 -1.26678e-06
v -0.0157719 0.00281573 3.26937e-06
v -0.0157764 0.00281573 3.26937e-06
v -0.0157673 0.00281573 -1.26678e-06
v -0.0157628 0.00281573 -1.26678e-06
v -0.0157628 0.00281573 3.26937e-06
v -0.0157673 0.00281573 3.26937e-06
v -0.0157583 0.00281573 -1.26678e-06
v -0.0157537 0.00281573 -1.26678e-06
v -0.0157537 0.00281573 3.26937e-06
v -0.0157583 0.00281573 3.26937e-06
v -0.0157492 0.00281573 -1.26678e-06
v -0.0157447 0.00281573 -1.26678e-06
v -0.0157447 0.00281573 3.26937e-06
v -0.0157492 0.00281573 3.26937e-06
v -0.0157401 0.00281573 -1.26678e-06
v -0.0157356 0.00281573 -1.26678e-06
v -0.0157356 0.00281573 3.26937e-06
v -0.0157401 0.00281573 3.26937e-06
v -0.0157311 0.00281573 -1.26678e-06
v -0.0157265 0.00281573 -1.26678e-06
v -0.0157265 0.00281573 3.26937e-06
v -0.0157311 0.00281573 3.26937e-06
v -0.015722 0.00281573 -1.26678e-06
v -0.0157175 0.00281573 -1.26678e-06
v -0.0157175 0.00281573 3.26937e-06
v -0.015722 0.00281573 3.26937e-06
v -0.0157129 0.00281573 -1.26678e-06
v -0.0157084 0.00281573 -1.26678e-06
v -0.0157084 0.00281573 3.26937e-06
v -0.0157129 0.00281573 3.26937e-06
v -0.0157038 0.00281573 -1.26678e-06
v -0.0156993 0.00281573 -1.26678e-06
v -0.0156993 0.00281573 3.26937e-06
v -0.0157038 0.00281573 3.26937e-06
v -0.0156948 0.00281573 -1.26678e-06
v -0.0156902 0.00281573 -1.26678e-06
v -0.0156902 0.00281573 3.26937e-06
v -0.0156948 0.00281573 3.26937e-06
v -0.0156857 0.00281573 -1.26678e-06
v -0.0156812 0.00281573 -1.26678e-06
v -0.0156812 0.00281573 3.26937e-06
v -0.0156857 0.00281573 3.26937e-06
v -0.0156766 0.00281573 -1.26678e-06
v -0.0156721 0.00281573 -1.26678e-06
v -0.0156721 0.00281573 3.26937e-06
v -0.0156766 0.00281573 3.26937e-06
v -0.0156676 0.00281573 -1.26678e-06
v -0.015663 0.00281573 -1.26678e-06
v -0.015663 0.00281573 3.26937e-06
v -0.0156676 0.00281573 3.26937e-06
v -0.0156585 0.00281573 -1.26678e-06
v -0.0156539 0.00281573 -1.26678e-06
v -0.0156539 0.00281573 3.26937e-06
v -0.0156585 0.00281573 3.26937e-06
v -0.0156494 0.00281573 -1.26678e-06
v -0.0156449 0.00281573 -1.26678e-06
v -0.0156449 0.00281573 3.26937e-06
v -0.0156494 0.00281573 3.26937e-06
v -0.0156403 0.00281573 -1.26678e-06
v -0.0156358 0.00281573 -1.26678e-06
v -0.0156358 0.00281573 3.26937e-06
v -0.0156403 0.00281573 3.26937e-06
v -0.0156313 0.00281573 -1.26678e-06
v -0.0156267 0.00281573 -1.26678e-06
v -0.0156267 0.00281573 3.26937e-06
v -0.0156313 0.00281573 3.26937e-06
v -0.0156222 0.00281573 -1.26678e-06
v -0.0156177 0.00281573 -1.26678e-06
v -0.0156177 0.00281573 3.26937e-06
v -0.0156222 0.00281573 3.26937e-06
v -0.0156131 0.00281573 -1.26678e-06
v -0.0156086 0.00281573 -1.26678e-06
v -0.0156086 0.00281573 3.26937e-06
v -0.0156131 0.00281573 3.26937e-06
v -0.015604 0.00281573 -1.26678e-06
v -0.0155995 0.00281573 -1.26678e-06
v -0.0155995 0.00281573 3.26937e-06
v -0.015604 0.00281573 3.26937e-06
v -0.015595 0.00281573 -1.26678e-06
v -0.0155904 0.00281573 -1.26678e-06
v -0.0155904 0.00281573 3.26937e-06
v -0.015595 0.00281573 3.26937e-06
v -0.0155859 0.00281573 -1.26678e-06
v -0.0155814 0.00281573 -1.26678e-06
v -0.0155814 0.00281573 3.26937e-06
v -0.0155859 0.00281573 3.26937e-06
v -0.0155768 0.00281573 -1.26678e-06
v -0.0155723 0.00281573 -1.26678e-06
v -0.0155723 0.00281573 3.26937e-06
v -0.0155768 0.00281573 3.26937e-06
v -0.0155678 0.00281573 -1.26678e-06
v -0.0155632 0.00281573 -1.26678e-06
v -0.0155632 0.00281573 3.26937e-06
v -0.0155678 0.00281573 3.26937e-06
v -0.0155587 0.00281573 -1.26678e-06
v -0.0155542 0.00281573 -1.26678e-06
v -0.0155542 0.00281573 3.26937e-06
v -0.0155587 0.00281573 3.26937e-06
v -0.0155496 0.00281573 -1.26678e-06
v -0.0155451 0.00281573 -1.26678e-06
v -0.0155451 0.00281573 3.26937e-06
v -0.0155496 0.00281573 3.26937e-06
v -0.0155405 0.00281573 -1.26678e-06
v -0.015536 0.00281573 -1.26678e-06
v -0.015536 0.00281573 3.26937e-06
v -0.0155405 0.00281573 3.26937e-06
v -0.0155315 0.00281573 -1.26678e-06
v -0.0155269 0.00281573 -1.26678e-06
v -0.0155269 0.00281573 3.26937e-06
v -0.0155315 0.00281573 3.26937e-06
v -0.0155224 0.00281573 -1.26678e-06
v -0.0155179 0.00281573 -1.26678e-06
v -0.0155179 0.00281573 3.26937e-06
v -0.0155224 0.00281573 3.26937e-06
v -0.0155133 0.00281573 -1.26678e-06
v -0.0155088 0.00281573 -1.26678e-06
v -0.0155088 0.00281573 3.26937e-06
v -0.0155133 0.00281573 3.26937e-06
v -0.0155043 0.00281573 -1.26678e-06
v -0.0154997 0.00281573 -1.26678e-06
v -0.0154997 0.00281573 3.26937e-06
v -0.0155043 0.00281573 3.26937e-06
v -0.0154952 0.00281573 -1.26678e-06
v -0.0154906 0.00281573 -1.26678e-06
v -0.0154906 0.00281573 3.26937e-06
v -0.0154952 0.00281573 3.26937e-06
v -0.0154861 0.00281573 -1.26678e-06
v -0.0154816 0.00281573 -1.26678e-06
v -0.0154816 0.00281573 3.26937e-06
v -0.0154861 0.00281573 3.26937e-06
v -0.015477 0.00281573 -1.26678e-06
v -0.0154725 0.00281573 -1.26678e-06
v -0.0154725 0.00281573 3.26937e-06
v -0.015477 0.00281573 3.26937e-06
v -0.015468 0.00281573 -1.26678e-06
v -0.0154634 0.00281573 -1.26678e-06
v -0.0154634 0.00281573 3.26937e-06
v -0.015468 0.00281573 3.26937e-06
v -0.0154589 0.00281573 -1.26678e-06
v -0.0154544 0.00281573 -1.26678e-06
v -0.0154544 0.00281573 3.26937e-06
v -0.0154589 0.00281573 3.26937e-06
v -0.0154498 0.00281573 -1.26678e-06
v -0.0154453 0.00281573 -1.26678e-06
v -0.0154453 0.00281573 3.26937e-06
v -0.0154498 0.00281573 3.26937e-06
v -0.0154407 0.00281573 -1.26678e-06
v -0.0154362 0.00281573 -1.26678e-06
v -0.0154362 0.00281573 3.26937e-06
v -0.0154407 0.00281573 3.26937e-06
v -0.0154317 0.00281573 -1.26678e-06
v -0.0154271 0.00281573 -1.26678e-06
v -0.0154271 0.00281573 3.26937e-06
v -0.0154317 0.00281573 3.26937e-06
v -0.0154226 0.00281573 -1.26678e-06
v -0.0154181 0.00281573 -1.26678e-06
v -0.0154181 0.00281573 3.26937e-06
v -0.0154226 0.00281573 3.26937e-06
v -0.0154135 0.00281573 -1.26678e-06
v -0.015409 0.00281573 -1.26678e-06
v -0.015409 0.00281573 3.26937e-06
v -0.0154135 0.00281573 3.26937e-06
v -0.0154045 0.00281573 -1.26678e-06
v -0.0153999 0.00281573 -1.26678e-06
v -0.0153999 0.00281573 3.26937e-06
v -0.0154045 0.00281573 3.26937e-06
v -0.0153954 0.00281573 -1.26678e-06
v -0.0153909 0.00281573 -1.26678e-06
v -0.0153909 0.00281573 3.26937e-06
v -0.0153954 0.00281573 3.26937e-06
v -0.0153863 0.00281573 -1.26678e-06
v -0.0153818 0.00281573 -1.26678e-06
v -0.0153818 0.00281573 3.26937e-06
v -0.0153863 0.00281573 3.26937e-06
v -0.0153772 0.00281573 -1.26678e-06
v -0.0153727 0.00281573 -1.26678e-06
v -0.0153727 0.00281573 3.26937e-06
v -0.0153772 0.00281573 3.26937e-06
v -0.0153682 0.00281573 -1.26678e-06
v -0.0153636 0.00281573 -1.26678e-06
v -0.0153636 0.00281573 3.26937e-06
v -0.0153682 0.00281573 3.26937e-06
v -0.0153591 0.00281573 -1.26678e-06
v -0.0153546 0.00281573 -1.26678e-06
v -0.0153546 0.00281573 3.26937e-06
v -0.0153591 0.00281573 3.26937e-06
v -0.01535 0.00281573 -1.26678e-06
v -0.0153455 0.00281573 -1.26678e-06
v -0.0153455 0.00281573 3.26937e-06
v -0.01535 0.00281573 3.26937e-06
v -0.015341 0.00281573 -1.26678e-06
v -0.0153364 0.00281573 -1.26678e-06
v -0.0153364 0.00281573 3.26937e-06
v -0.015341 0.00281573 3.26937e-06
v -0.0153319 0.00281573 -1.26678e-06
v -0.0153273 0.00281573 -1.26678e-06
v -0.0153273 0.00281573 3.26937e-06
v -0.0153319 0.00281573 3.26937e-06
v -0.0158717 0.00288378 3.26937e-06
v -0.0158717 0.00288831 3.26937e-06
v -0.0158717 0.00288831 -1.26678e-06
v -0.0158717 0.00288378 -1.26678e-06
v -0.0158717 0.00289285 3.26937e-06
v -0.0158717 0.00289738 3.26937e-06
v -0.0158717 0.00289738 -1.26678e-06
v -0.0158717 0.00289285 -1.26678e-06
v -0.0158717 0.00290192 3.26937e-06
v -0.0158717 0.00290646 3.26937e-06
v -0.0158717 0.00290646 -1.26678e-06
v -0.0158717 0.00290192 -1.26678e-06
v -0.0158717 0.00291099 3.26937e-06
v -0.0158717 0.00291553 3.26937e-06
v -0.0158717 0.00291553 -1.26678e-06
v -0.0158717 0.00291099 -1.26678e-06
v -0.0158717 0.00292006 3.26937e-06
v -0.0158717 0.0029246 3.26937e-06
v -0.0158717 0.0029246 -1.26678e-06
v -0.0158717 0.00292006 -1.26678e-06
v -0.0158717 0.00292914 3.26937e-06
v -0.0158717 0.00293367 3.26937e-06
v -0.0158717 0.00293367 -1.26678e-06
v -0.0158717 0.00292914 -1.26678e-06
v -0.0158717 0.00293821 3.26937e-06
v -0.0158717 0.00294275 3.26937e-06
v -0.0158717 0.00294275 -1.26678e-06
v -0.0158717 0.00293821 -1.26678e-06
v -0.0158717 0.00294728 3.26937e-06
v -0.0158717 0.00295182 3.26937e-06
v -0.0158717 0.00295182 -1.26678e-06
v -0.0158717 0.00294728 -1.26678e-06
v -0.0158944 0.00296089 -1.26678e-06
v -0.0158898 0.00296089 -1.26678e-06
v -0.0158898 0.00296089 3.26937e-06
v -0.0158944 0.00296089 3.26937e-06
v -0.0158853 0.00296089 -1.26678e-06
v -0.0158808 0.00296089 -1.26678e-06
v -0.0158808 0.00296089 3.26937e-06
v -0.0158853 0.00296089 3.26937e-06
v -0.0158717 0.00295635 3.26937e-06
v -0.0158717 0.00295635 -1.26678e-06
v -0.0158762 0.00296089 -1.26678e-06
v -0.0158762 0.00296089 3.26937e-06
v -0.0153228 0.00281573 -1.26678e-06
v -0.0153183 0.00281573 -1.26678e-06
v -0.0153183 0.00281573 3.26937e-06
v -0.0153228 0.00281573 3.26937e-06
v -0.0153137 0.00281573 -1.26678e-06
v -0.0153092 0.00281573 -1.26678e-06
v -0.0153092 0.00281573 3.26937e-06
v -0.0153137 0.00281573 3.26937e-06
v -0.0153047 0.00281573 -1.26678e-06
v -0.0153001 0.00281573 -1.26678e-06
v -0.0153001 0.00281573 3.26937e-06
v -0.0153047 0.00281573 3.26937e-06
v -0.0152956 0.00281573 -1.26678e-06
v -0.0152911 0.00281573 -1.26678e-06
v -0.0152911 0.00281573 3.26937e-06
v -0.0152956 0.00281573 3.26937e-06
v -0.0152865 0.00281573 -1.26678e-06
v -0.015282 0.00281573 -1.26678e-06
v -0.015282 0.00281573 3.26937e-06
v -0.0152865 0.00281573 3.26937e-06
v -0.0152774 0.00281573 -1.26678e-06
v -0.0152729 0.00281573 -1.26678e-06
v -0.0152729 0.00281573 3.26937e-06
v -0.0152774 0.00281573 3.26937e-06
v -0.0152684 0.00281573 -1.26678e-06
v -0.0152638 0.00281573 -1.26678e-06
v -0.0152638 0.00281573 3.26937e-06
v -0.0152684 0.00281573 3.26937e-06
v -0.0152593 0.00281573 -1.26678e-06
v -0.0152548 0.00281573 -1.26678e-06
v -0.0152548 0.00281573 3.26937e-06
v -0.0152593 0.00281573 3.26937e-06
v -0.0152502 0.00281573 -1.26678e-06
v -0.0152457 0.00281573 -1.26678e-06
v -0.0152457 0.00281573 3.26937e-06
v -0.0152502 0.00281573 3.26937e-06
v -0.0152412 0.00281573 -1.26678e-06
v -0.0152366 0.00281573 -1.26678e-06
v -0.0152366 0.00281573 3.26937e-06
v -0.0152412 0.00281573 3.26937e-06
v -0.0152321 0.00281573 -1.26678e-06
v -0.0152276 0.00281573 -1.26678e-06
v -0.0152276 0.00281573 3.26937e-06
v -0.0152321 0.00281573 3.26937e-06
v -0.015223 0.00281573 -1.26678e-06
v -0.0152185 0.00281573 -1.26678e-06
v -0.0152185 0.00281573 3.26937e-06
v -0.015223 0.00281573 3.26937e-06
v -0.0152139 0.00281573 -1.26678e-06
v -0.0152094 0.00281573 -1.26678e-06
v -0.0152094 0.00281573 3.26937e-06
v -0.0152139 0.00281573 3.26937e-06
v -0.0152049 0.00281573 -1.26678e-06
v -0.0152003 0.00281573 -1.26678e-06
v -0.0152003 0.00281573 3.26937e-06
v -0.0152049 0.00281573 3.26937e-06
v -0.0151958 0.00281573 -1.26678e-06
v -0.0151913 0.00281573 -1.26678e-06
v -0.0151913 0.00281573 3.26937e-06
v -0.0151958 0.00281573 3.26937e-06
v -0.0151867 0.00281573 -1.26678e-06
v -0.0151822 0.00281573 -1.26678e-06
v -0.0151822 0.00281573 3.26937e-06
v -0.0151867 0.00281573 3.26937e-06
v -0.0151777 0.00281573 -1.26678e-06
v -0.0151731 0.00281573 -1.26678e-06
v -0.0151731 0.00281573 3.26937e-06
v -0.0151777 0.00281573 3.26937e-06
v -0.0151686 0.00281573 -1.26678e-06
v -0.015164 0.00281573 -1.26678e-06
v -0.015164 0.00281573 3.26937e-06
v -0.0151686 0.00281573 3.26937e-06
v -0.0151595 0.00281573 -1.26678e-06
v -0.015155 0.00281573 -1.26678e-06
v -0.015155 0.00281573 3.26937e-06
v -0.0151595 0.00281573 3.26937e-06
v -0.0151504 0.00281573 -1.26678e-06
v -0.0151459 0.00281573 -1.26678e-06
v -0.0151459 0.00281573 3.26937e-06
v -0.0151504 0.00281573 3.26937e-06
v -0.0151414 0.00281573 -1.26678e-06
v -0.0151368 0.00281573 -1.26678e-06
v -0.0151368 0.00281573 3.26937e-06
v -0.0151414 0.00281573 3.26937e-06
v -0.0151323 0.00281573 -1.26678e-06
v -0.0151278 0.00281573 -1.26678e-06
v -0.0151278 0.00281573 3.26937e-06
v -0.0151323 0.00281573 3.26937e-06
v -0.0151232 0.00281573 -1.26678e-06
v -0.0151187 0.00281573 -1.26678e-06
v -0.0151187 0.00281573 3.26937e-06
v -0.0151232 0.00281573 3.26937e-06
v -0.0151142 0.00281573 -1.26678e-06
v -0.0151096 0.00281573 -1.26678e-06
v -0.0151096 0.00281573 3.26937e-06
v -0.0151142 0.00281573 3.26937e-06
v -0.0151051 0.00281573 -1.26678e-06
v -0.0151005 0.00281573 -1.26678e-06
v -0.0151005 0.00281573 3.26937e-06
v -0.0151051 0.00281573 3.26937e-06
v -0.015096 0.00281573 -1.26678e-06
v -0.0150915 0.00281573 -1.26678e-06
v -0.0150915 0.00281573 3.26937e-06
v -0.015096 0.00281573 3.26937e-06
v -0.0150869 0.00281573 -1.26678e-06
v -0.0150824 0.00281573 -1.26678e-06
v -0.0150824 0.00281573 3.26937e-06
v -0.0150869 0.00281573 3.26937e-06
v -0.0150779 0.00281573 -1.26678e-06
v -0.0150779 0.00281573 3.26937e-06
v -0.0150643 0.00282481 -1.26678e-06
v -0.0150643 0.00282481 3.26937e-06
v -0.0150461 0.00283841 -1.26678e-06
v -0.0150461 0.00283841 3.26937e-06
v -0.015037 0.00284295 -1.26678e-06
v -0.015037 0.00284295 3.26937e-06
v -0.015028 0.00284749 -1.26678e-06
v -0.015028 0.00284749 3.26937e-06
v -0.0150189 0.00285202 -1.26678e-06
v -0.0150189 0.00285202 3.26937e-06
v -0.0150098 0.00285656 -1.26678e-06
v -0.0150098 0.00285656 3.26937e-06
v -0.0150007 0.0028611 -1.26678e-06
v -0.0150007 0.0028611 3.26937e-06
v -0.0149962 0.0028611 -1.26678e-06
v -0.0149917 0.0028611 -1.26678e-06
v -0.0149917 0.0028611 3.26937e-06
v -0.0149962 0.0028611 3.26937e-06
v -0.0149826 0.00286563 -1.26678e-06
v -0.0149826 0.00286563 3.26937e-06
v -0.0149781 0.00286563 -1.26678e-06
v -0.0149735 0.00286563 -1.26678e-06
v -0.0149735 0.00286563 3.26937e-06
v -0.0149781 0.00286563 3.26937e-06
v -0.0149645 0.00287017 -1.26678e-06
v -0.0149645 0.00287017 3.26937e-06
v -0.0149599 0.00287017 -1.26678e-06
v -0.0149554 0.00287017 -1.26678e-06
v -0.0149554 0.00287017 3.26937e-06
v -0.0149599 0.00287017 3.26937e-06
v -0.0149509 0.00287017 -1.26678e-06
v -0.0149463 0.00287017 -1.26678e-06
v -0.0149463 0.00287017 3.26937e-06
v -0.0149509 0.00287017 3.26937e-06
v -0.0149418 0.00287017 -1.26678e-06
v -0.0149372 0.00287017 -1.26678e-06
v -0.0149372 0.00287017 3.26937e-06
v -0.0149418 0.00287017 3.26937e-06
v -0.0149327 0.00287017 -1.26678e-06
v -0.0149282 0.00287017 -1.26678e-06
v -0.0149282 0.00287017 3.26937e-06
v -0.0149327 0.00287017 3.26937e-06
v -0.0149191 0.00286563 -1.26678e-06
v -0.0149191 0.00286563 3.26937e-06
v -0.0149146 0.00286563 -1.26678e-06
v -0.0149146 0.00286563 3.26937e-06
v -0.014901 0.00285656 -1.26678e-06
v -0.014901 0.00285656 3.26937e-06
v -0.0148238 0.00280666 -1.26678e-06
v -0.0148238 0.00280666 3.26937e-06
v -0.0148737 0.00283841 -1.26678e-06
v -0.0148737 0.00283841 3.26937e-06
v -0.0148601 0.00282934 -1.26678e-06
v -0.0148601 0.00282934 3.26937e-06
v -0.0148873 0.00284749 -1.26678e-06
v -0.0148873 0.00284749 3.26937e-06
v -0.0148465 0.00282027 -1.26678e-06
v -0.0148465 0.00282027 3.26937e-06
v -0.0148329 0.0028112 -1.26678e-06
v -0.0148329 0.0028112 3.26937e-06
v -0.0148102 0.00279759 -1.26678e-06
v -0.0148102 0.00279759 3.26937e-06
v -0.0147966 0.00278852 -1.26678e-06
v -0.0147966 0.00278852 3.26937e-06
v -0.014783 0.00277945 -1.26678e-06
v -0.014783 0.00277945 3.26937e-06
v -0.0147694 0.00277037 -1.26678e-06
v -0.0147694 0.00277037 3.26937e-06
v -0.0147603 0.00276584 -1.26678e-06
v -0.0147603 0.00276584 3.26937e-06
# </points>

# <edges count="724">
l 1 2
l 3 4
l 8 7
l 10 9
l 19 20
l 25 26
l 27 28
l 31 32
l 39 40
l 41 42
l 47 48
l 53 54
l 55 56
l 57 58
l 63 64
l 65 66
l 67 68
l 73 74
l 77 78
l 82 81
l 85 86
l 87 88
l 92 91
l 93 94
l 98 97
l 99 100
l 104 103
l 109 110
l 113 114
l 117 118
l 122 121
l 128 127
l 129 130
l 137 138
l 142 141
l 145 146
l 147 148
l 152 151
l 155 156
l 159 160
l 5 6
l 11 12
l 13 14
l 17 18
l 21 22
l 23 24
l 29 30
l 34 33
l 36 35
l 37 38
l 44 43
l 45 46
l 50 49
l 51 52
l 60 59
l 61 62
l 69 70
l 71 72
l 75 76
l 79 80
l 83 84
l 89 90
l 95 96
l 101 102
l 105 106
l 107 108
l 111 112
l 115 116
l 119 120
l 123 124
l 125 126
l 131 132
l 133 134
l 135 136
l 139 140
l 143 144
l 149 150
l 153 154
l 161 162
l 163 164
l 165 166
l 167 168
l 2 165
l 168 1
l 169 170
l 171 172
l 173 174
l 175 176
l 170 173
l 176 171
l 177 178
l 179 180
l 181 182
l 183 184
l 178 181
l 184 179
l 174 177
l 180 175
l 4 5
l 6 3
l 7 6
l 5 8
l 9 185
l 186 10
l 10 11
l 12 9
l 3 12
l 11 4
l 187 13
l 14 188
l 189 190
l 191 192
l 193 194
l 195 196
l 190 193
l 196 191
l 8 187
l 188 7
l 185 189
l 192 186
l 166 169
l 172 167
l 1 14
l 13 2
l 197 198
l 199 200
l 201 202
l 203 204
l 198 201
l 204 199
l 205 206
l 207 208
l 209 210
l 211 212
l 206 209
l 212 207
l 202 205
l 208 203
l 213 214
l 215 216
l 217 218
l 219 220
l 214 217
l 220 215
l 221 222
l 223 224
l 225 226
l 227 228
l 222 225
l 228 223
l 218 221
l 224 219
l 210 213
l 216 211
l 194 197
l 200 195
l 229 230
l 231 232
l 233 234
l 235 236
l 230 233
l 236 231
l 237 238
l 239 240
l 241 242
l 243 244
l 238 241
l 244 239
l 234 237
l 240 235
l 245 246
l 247 248
l 249 250
l 251 252
l 246 249
l 252 247
l 253 254
l 255 256
l 257 258
l 259 260
l 254 257
l 260 255
l 250 253
l 256 251
l 242 245
l 248 243
l 261 262
l 263 264
l 265 266
l 267 268
l 262 265
l 268 263
l 269 270
l 271 272
l 273 274
l 275 276
l 270 273
l 276 271
l 266 269
l 272 267
l 277 278
l 279 280
l 281 282
l 283 284
l 278 281
l 284 279
l 285 286
l 287 288
l 289 290
l 291 292
l 286 289
l 292 287
l 282 285
l 288 283
l 274 277
l 280 275
l 258 261
l 264 259
l 226 229
l 232 227
l 293 294
l 295 296
l 297 298
l 299 300
l 294 297
l 300 295
l 301 302
l 303 304
l 305 306
l 307 308
l 302 305
l 308 303
l 298 301
l 304 299
l 309 310
l 311 312
l 313 314
l 315 316
l 310 313
l 316 311
l 317 318
l 319 320
l 321 322
l 323 324
l 318 321
l 324 319
l 314 317
l 320 315
l 306 309
l 312 307
l 325 326
l 327 328
l 329 330
l 331 332
l 326 329
l 332 327
l 333 334
l 335 336
l 337 338
l 339 340
l 334 337
l 340 335
l 330 333
l 336 331
l 341 342
l 343 344
l 345 346
l 347 348
l 342 345
l 348 343
l 349 350
l 351 352
l 353 354
l 355 356
l 350 353
l 356 351
l 346 349
l 352 347
l 338 341
l 344 339
l 322 325
l 328 323
l 357 358
l 359 360
l 361 362
l 363 364
l 358 361
l 364 359
l 365 366
l 367 368
l 369 370
l 371 372
l 366 369
l 372 367
l 362 365
l 368 363
l 373 374
l 375 376
l 377 378
l 379 380
l 374 377
l 380 375
l 381 382
l 383 384
l 385 386
l 387 388
l 382 385
l 388 383
l 378 381
l 384 379
l 370 373
l 376 371
l 389 390
l 391 392
l 393 394
l 395 396
l 390 393
l 396 391
l 397 398
l 399 400
l 401 402
l 403 404
l 398 401
l 404 399
l 394 397
l 400 395
l 405 406
l 407 408
l 409 410
l 411 412
l 406 409
l 412 407
l 413 414
l 415 416
l 417 418
l 419 420
l 414 417
l 420 415
l 410 413
l 416 411
l 402 405
l 408 403
l 386 389
l 392 387
l 354 357
l 360 355
l 290 293
l 296 291
l 421 422
l 423 424
l 425 426
l 427 428
l 422 425
l 428 423
l 429 430
l 431 432
l 433 434
l 435 436
l 430 433
l 436 431
l 426 429
l 432 427
l 437 438
l 439 440
l 441 442
l 443 444
l 438 441
l 444 439
l 445 446
l 447 448
l 449 450
l 451 452
l 446 449
l 452 447
l 442 445
l 448 443
l 434 437
l 440 435
l 453 454
l 455 456
l 15 453
l 456 16
l 16 15
l 457 458
l 459 460
l 461 17
l 18 462
l 463 18
l 17 464
l 458 463
l 464 459
l 454 457
l 460 455
l 450 461
l 462 451
l 465 466
l 467 468
l 469 470
l 471 472
l 466 469
l 472 467
l 473 474
l 475 476
l 477 478
l 479 480
l 474 477
l 480 475
l 470 473
l 476 471
l 481 482
l 483 484
l 485 486
l 487 488
l 482 485
l 488 483
l 489 490
l 491 492
l 493 494
l 495 496
l 490 493
l 496 491
l 486 489
l 492 487
l 478 481
l 484 479
l 497 498
l 499 500
l 501 502
l 503 504
l 498 501
l 504 499
l 505 506
l 507 508
l 509 510
l 511 512
l 506 509
l 512 507
l 502 505
l 508 503
l 513 514
l 515 516
l 517 518
l 519 520
l 514 517
l 520 515
l 521 522
l 523 524
l 525 526
l 527 528
l 522 525
l 528 523
l 518 521
l 524 519
l 510 513
l 516 511
l 494 497
l 500 495
l 529 530
l 531 532
l 533 534
l 535 536
l 530 533
l 536 531
l 537 538
l 539 540
l 541 542
l 543 544
l 538 541
l 544 539
l 534 537
l 540 535
l 545 546
l 547 548
l 549 550
l 551 552
l 546 549
l 552 547
l 553 554
l 555 556
l 557 558
l 559 560
l 554 557
l 560 555
l 550 553
l 556 551
l 542 545
l 548 543
l 561 562
l 563 564
l 565 566
l 567 568
l 562 565
l 568 563
l 569 570
l 571 572
l 573 19
l 20 574
l 22 20
l 19 21
l 570 573
l 574 571
l 566 569
l 572 567
l 24 25
l 26 23
l 23 575
l 576 24
l 575 27
l 28 576
l 30 31
l 32 29
l 33 32
l 31 34
l 35 577
l 578 36
l 38 39
l 40 37
l 37 579
l 580 38
l 36 41
l 42 35
l 577 40
l 39 578
l 34 28
l 27 33
l 29 42
l 41 30
l 21 26
l 25 22
l 558 561
l 564 559
l 526 529
l 532 527
l 43 581
l 582 44
l 46 47
l 48 45
l 45 583
l 584 46
l 581 48
l 47 582
l 49 585
l 586 50
l 52 53
l 54 51
l 51 587
l 588 52
l 50 55
l 56 49
l 585 54
l 53 586
l 583 56
l 55 584
l 589 590
l 591 592
l 590 57
l 58 591
l 59 593
l 594 60
l 595 596
l 597 598
l 62 63
l 64 61
l 61 599
l 600 62
l 596 64
l 63 597
l 60 58
l 57 59
l 593 595
l 598 594
l 44 65
l 66 43
l 587 589
l 592 588
l 601 602
l 603 604
l 605 606
l 607 608
l 602 605
l 608 603
l 609 610
l 611 612
l 613 614
l 615 616
l 610 613
l 616 611
l 606 609
l 612 607
l 68 69
l 70 67
l 67 617
l 618 68
l 619 71
l 72 620
l 617 619
l 620 618
l 74 75
l 76 73
l 73 621
l 622 74
l 78 79
l 80 77
l 81 80
l 79 82
l 82 83
l 84 81
l 621 84
l 83 622
l 86 72
l 71 85
l 85 76
l 75 86
l 614 70
l 69 615
l 599 601
l 604 600
l 88 89
l 90 87
l 623 90
l 89 624
l 91 623
l 624 92
l 94 95
l 96 93
l 93 625
l 626 94
l 97 96
l 95 98
l 100 101
l 102 99
l 103 102
l 101 104
l 627 105
l 106 628
l 104 107
l 108 103
l 99 627
l 628 100
l 110 106
l 105 109
l 625 108
l 107 626
l 629 111
l 112 630
l 114 115
l 116 113
l 113 631
l 632 114
l 118 119
l 120 117
l 121 120
l 119 122
l 122 123
l 124 121
l 631 124
l 123 632
l 633 125
l 126 634
l 117 633
l 634 118
l 98 112
l 111 97
l 109 116
l 115 110
l 127 635
l 636 128
l 130 131
l 132 129
l 129 133
l 134 130
l 128 135
l 136 127
l 635 132
l 131 636
l 138 139
l 140 137
l 637 140
l 139 638
l 141 639
l 640 142
l 142 143
l 144 141
l 137 144
l 143 138
l 146 134
l 133 145
l 145 637
l 638 146
l 148 149
l 150 147
l 641 150
l 149 642
l 151 641
l 642 152
l 643 153
l 154 644
l 156 154
l 153 155
l 155 157
l 157 158
l 158 156
l 147 643
l 644 148
l 160 161
l 162 159
l 159 163
l 164 160
l 152 164
l 163 151
l 639 162
l 161 640
l 92 126
l 125 91
l 87 136
l 135 88
l 77 629
l 630 78
l 579 66
l 65 580
l 182 421
l 424 183
l 418 465
l 468 419
# </edges>
